<?xml version="1.0" encoding="utf-8"?>
<!-- Generator: Adobe Illustrator 21.0.2, SVG Export Plug-In . SVG Version: 6.00 Build 0)  -->
<svg version="1.1" id="Layer_1" xmlns="http://www.w3.org/2000/svg" xmlns:xlink="http://www.w3.org/1999/xlink" x="0px" y="0px"
	 viewBox="0 0 32.5 24.1" style="enable-background:new 0 0 32.5 24.1;" xml:space="preserve">
<title>back</title>
<desc>Created with Sketch.</desc>
<path d="M31.5,13h-30c-0.6,0-1-0.4-1-1s0.4-1,1-1h30c0.6,0,1,0.4,1,1S32,13,31.5,13z"/>
<path d="M11.9,23.8c-0.3,0-0.5-0.1-0.7-0.3L0.3,12.6C0.1,12.4,0,12.1,0,11.9s0.1-0.5,0.3-0.7L11.2,0.3c0.4-0.4,1-0.4,1.4,0
	c0.4,0.4,0.4,1,0,1.4L2.4,11.9l10.2,10.2c0.4,0.4,0.4,1,0,1.4C12.4,23.7,12.2,23.8,11.9,23.8z"/>
</svg>
