<?xml version="1.0" encoding="utf-8"?>
<!-- Generator: Adobe Illustrator 21.0.2, SVG Export Plug-In . SVG Version: 6.00 Build 0)  -->
<svg version="1.1" id="Layer_1" xmlns="http://www.w3.org/2000/svg" xmlns:xlink="http://www.w3.org/1999/xlink" x="0px" y="0px"
	 viewBox="0 0 14.9 18" style="enable-background:new 0 0 14.9 18;" xml:space="preserve">
<style type="text/css">
	.st0{display:none;}
	.st1{display:inline;}
	.st2{fill:#604F4E;}
	.st3{display:inline;fill:#FFFFFF;fill-opacity:0;}
</style>
<g class="st0">
	<g transform="translate(-212 -418)" class="st1">
		<g>
			<path id="vquva" class="st2" d="M224.5,424.8c1.1,0.2,1.9,1.1,1.9,2.2v6.2c0,1.3-1,2.3-2.3,2.3h-9.3c-1.3,0-2.3-1-2.3-2.3v-6.2
				c0-1.1,0.8-2,1.9-2.2v-1.8c0-2.5,2.3-4.6,5-4.6c2.8,0,5,2,5,4.6L224.5,424.8z M215,424.8h8.8v-1.7c0-2.2-2-3.9-4.4-3.9
				s-4.4,1.8-4.4,3.9V424.8z M225.7,427.1c0-0.9-0.7-1.6-1.6-1.6h-9.3c-0.9,0-1.6,0.7-1.6,1.6v6.2c0,0.9,0.7,1.6,1.6,1.6h9.3
				c0.9,0,1.6-0.7,1.6-1.6V427.1z"/>
		</g>
	</g>
</g>
<g class="st0">
	<path class="st3" d="M12.5,6.8l0-1.8c0-2.5-2.3-4.6-5-4.6c-2.8,0-5,2.1-5,4.6v1.8C1.3,7,0.5,7.9,0.5,9.1v6.2c0,1.3,1,2.3,2.3,2.3
		h9.3c1.3,0,2.3-1,2.3-2.3V9.1C14.3,8,13.6,7,12.5,6.8z M3,5.1c0-2.2,2-3.9,4.4-3.9s4.4,1.8,4.4,3.9v1.7H3V5.1z M13.7,15.2
		c0,0.9-0.7,1.6-1.6,1.6H2.8c-0.9,0-1.7-0.7-1.7-1.6V9.1c0-0.9,0.7-1.6,1.7-1.6h9.3c0.9,0,1.6,0.7,1.6,1.6V15.2z"/>
</g>
<path d="M2.8,18C1.3,18,0,16.8,0,15.2V9.1c0-1.2,0.8-2.2,1.9-2.6V5.1C1.9,2.3,4.4,0,7.4,0c3,0,5.5,2.3,5.5,5.1l0,1.4
	c1.1,0.4,1.9,1.4,1.9,2.6v6.2c0,1.5-1.2,2.8-2.8,2.8H2.8z M2.8,7.9c-0.6,0-1.2,0.5-1.2,1.1v6.2c0,0.6,0.5,1.1,1.2,1.1h9.3
	c0.6,0,1.1-0.5,1.1-1.1V9.1c0-0.6-0.5-1.1-1.1-1.1H2.8z M3.5,6.3h7.8V5.1c0-1.9-1.7-3.4-3.9-3.4c-2.2,0-3.9,1.5-3.9,3.4V6.3z"/>
</svg>
