<?xml version="1.0" encoding="UTF-8"?>
<svg width="26px" height="26px" viewBox="0 0 26 26" version="1.1" xmlns="http://www.w3.org/2000/svg" xmlns:xlink="http://www.w3.org/1999/xlink">
    <!-- Generator: Sketch 49.3 (51167) - http://www.bohemiancoding.com/sketch -->
    <title>Page 1</title>
    <desc>Created with Sketch.</desc>
    <defs>
        <polygon id="path-1" points="12.9542793 25.1831045 0 25.1831045 0 0.0502715356 12.9542793 0.0502715356 25.9085587 0.0502715356 25.9085587 25.1831045 12.9542793 25.1831045"></polygon>
        <polygon id="path-3" points="0 25.2275062 25.9085683 25.2275062 25.9085683 0.094673325 0 0.094673325"></polygon>
    </defs>
    <g id="Page-1" stroke="none" stroke-width="1" fill="none" fill-rule="evenodd">
        <g id="5---Menu" transform="translate(-52.000000, -228.000000)">
            <g id="Group" transform="translate(51.000000, 174.000000)">
                <g id="like" transform="translate(1.000000, 54.000000)">
                    <g id="Page-1">
                        <g id="Group-3" transform="translate(0.000000, 0.044402)">
                            <mask id="mask-2" fill="white">
                                <use xlink:href="#path-1"></use>
                            </mask>
                            <g id="Clip-2"></g>
                            <path d="M24.7572672,4.96145027 C24.7572672,5.66080212 24.1804701,6.22997815 23.4718502,6.22997815 L20.478876,6.22997815 L20.478876,2.51177799 C20.478876,2.16972326 20.4076878,1.84357366 20.2791269,1.54734082 L23.4718502,1.54734082 C24.1804701,1.54734082 24.7572672,2.11613816 24.7572672,2.81577403 L24.7572672,4.96145027 Z M24.7572672,10.7801675 C24.7572672,11.4795194 24.1804701,12.0486954 23.4718502,12.0486954 L20.478876,12.0486954 L20.478876,7.36605805 L23.4718502,7.36605805 C24.1804701,7.36605805 24.7572672,7.93485539 24.7572672,8.63449126 L24.7572672,10.7801675 Z M24.7572672,16.5988847 C24.7572672,17.2982366 24.1804701,17.8674126 23.4718502,17.8674126 L20.478876,17.8674126 L20.478876,13.1847753 L23.4718502,13.1847753 C24.1804701,13.1847753 24.7572672,13.7535726 24.7572672,14.4532085 L24.7572672,16.5988847 Z M24.7572672,22.417602 C24.7572672,23.1169538 24.1804701,23.6861298 23.4718502,23.6861298 L20.2791269,23.6861298 C20.4076878,23.389897 20.478876,23.0640314 20.478876,22.721598 L20.478876,19.0034925 L23.4718502,19.0034925 C24.1804701,19.0034925 24.7572672,19.5725739 24.7572672,20.2719257 L24.7572672,22.417602 Z M19.3275845,22.721598 C19.3275845,23.4523814 18.7249793,24.0470246 17.9844111,24.0470246 L2.49445535,24.0470246 C1.75388708,24.0470246 1.15128192,23.4523814 1.15128192,22.721598 L1.15128192,2.51177799 C1.15128192,1.78108926 1.75388708,1.18635144 2.49445535,1.18635144 L17.9844111,1.18635144 C18.7249793,1.18635144 19.3275845,1.78108926 19.3275845,2.51177799 L19.3275845,22.721598 Z M25.9085587,4.96145027 L25.9085587,2.81577403 C25.9085587,1.48996879 24.8153114,0.411260924 23.4718502,0.411260924 L19.2833557,0.411260924 C18.9048686,0.182340824 18.4599904,0.0502715356 17.9844111,0.0502715356 L2.49445535,0.0502715356 C1.11904576,0.0502715356 -9.5940959e-06,1.1545412 -9.5940959e-06,2.51177799 L-9.5940959e-06,22.721598 C-9.5940959e-06,24.0788348 1.11904576,25.1831045 2.49445535,25.1831045 L17.9844111,25.1831045 C18.4599904,25.1831045 18.9048686,25.0511298 19.2833557,24.8222097 L23.4718502,24.8222097 C24.8153114,24.8222097 25.9085587,23.7434072 25.9085587,22.417602 L25.9085587,20.2719257 C25.9085587,19.53603 25.571614,18.8770089 25.0421159,18.4354526 C25.571614,17.9938962 25.9085587,17.3348752 25.9085587,16.5988847 L25.9085587,14.4532085 C25.9085587,13.7173127 25.571614,13.057913 25.0421159,12.6167353 C25.571614,12.1751789 25.9085587,11.5157792 25.9085587,10.7801675 L25.9085587,8.63449126 C25.9085587,7.89859551 25.571614,7.2391958 25.0421159,6.7980181 C25.571614,6.35646171 25.9085587,5.69706201 25.9085587,4.96145027 L25.9085587,4.96145027 Z" id="Fill-1" fill="#604F4E" mask="url(#mask-2)"></path>
                        </g>
                        <mask id="mask-4" fill="white">
                            <use xlink:href="#path-3"></use>
                        </mask>
                        <g id="Clip-5"></g>
                        <path d="M7.77833653,14.1160081 C7.93088266,14.0217135 8.03018155,13.8622836 8.04591587,13.6855285 C8.06203395,13.5083947 7.99343616,13.3341958 7.86007823,13.2147181 C7.12517048,12.5542769 6.70350996,11.6134134 6.70350996,10.6334499 C6.70350996,8.7093092 8.28950996,7.14416979 10.23951,7.14416979 C12.1890303,7.14416979 13.775414,8.7093092 13.775414,10.6334499 C13.775414,11.6134134 13.3538494,12.5542769 12.618462,13.2147181 C12.4854878,13.3341958 12.4165063,13.5083947 12.4326244,13.6855285 C12.4487424,13.8622836 12.5476576,14.0217135 12.7002037,14.1160081 C13.5565727,14.6456107 14.2150155,15.4406773 14.5747941,16.3592926 L5.90412989,16.3592926 C6.26352472,15.4406773 6.92235129,14.645232 7.77833653,14.1160081 M5.13401181,17.4953725 L15.3449122,17.4953725 C15.5184694,17.4953725 15.6830081,17.418119 15.7923808,17.2850083 C15.9014657,17.1514243 15.9442554,16.9769413 15.9077978,16.8093695 C15.6319675,15.5287235 14.9045432,14.3722888 13.8758642,13.550903 C14.5500413,12.7317894 14.9267055,11.6999449 14.9267055,10.6334499 C14.9267055,8.08313983 12.8238716,6.00808989 10.23951,6.00808989 C7.65466863,6.00808989 5.55221845,8.08313983 5.55221845,10.6334499 C5.55221845,11.6999449 5.92888266,12.7317894 6.60267601,13.550903 C5.57399705,14.3722888 4.84695646,15.5287235 4.5711262,16.8093695 C4.53476458,16.9769413 4.5774583,17.151803 4.68654317,17.2850083 C4.79591587,17.418119 4.96045461,17.4953725 5.13401181,17.4953725" id="Fill-6" fill="#604F4E" mask="url(#mask-4)"></path>
                    </g>
                </g>
            </g>
        </g>
    </g>
</svg>