<?xml version="1.0" encoding="utf-8"?>
<!-- Generator: Adobe Illustrator 21.0.2, SVG Export Plug-In . SVG Version: 6.00 Build 0)  -->
<svg version="1.1" id="Layer_1" xmlns="http://www.w3.org/2000/svg" xmlns:xlink="http://www.w3.org/1999/xlink" x="0px" y="0px"
	 viewBox="0 0 25.9 25.1" style="enable-background:new 0 0 25.9 25.1;" xml:space="preserve">
<style type="text/css">
	.st0{display:none;}
	.st1{display:inline;}
	.st2{filter:url(#Adobe_OpacityMaskFilter);}
	.st3{fill:#FFFFFF;}
	.st4{mask:url(#mask-2);}
	.st5{filter:url(#Adobe_OpacityMaskFilter_1_);}
	.st6{mask:url(#mask-4);}
</style>
<title>Page 1</title>
<desc>Created with Sketch.</desc>
<g id="Page-1_1_" class="st0">
	<g id="_x35_---Menu" transform="translate(-52.000000, -228.000000)" class="st1">
		<g id="Group" transform="translate(51.000000, 174.000000)">
			<g id="like" transform="translate(1.000000, 54.000000)">
				<g id="Page-1">
					<g id="Group-3" transform="translate(0.000000, 0.044402)">
						<g id="Clip-2">
						</g>
					</g>
					<g id="Clip-5">
					</g>
				</g>
			</g>
		</g>
	</g>
</g>
<defs>
	<filter id="Adobe_OpacityMaskFilter" filterUnits="userSpaceOnUse" x="0" y="0" width="25.9" height="25.1">
		<feColorMatrix  type="matrix" values="1 0 0 0 0  0 1 0 0 0  0 0 1 0 0  0 0 0 1 0"/>
	</filter>
</defs>
<mask maskUnits="userSpaceOnUse" x="0" y="0" width="25.9" height="25.1" id="mask-2">
	<g class="st2">
		<polygon id="path-1" class="st3" points="13,25.1 0,25.1 0,0 13,0 25.9,0 25.9,25.1 		"/>
	</g>
</mask>
<path id="Fill-1" class="st4" d="M24.8,4.9c0,0.7-0.6,1.3-1.3,1.3h-3V2.5c0-0.3-0.1-0.7-0.2-1h3.2c0.7,0,1.3,0.6,1.3,1.3V4.9z
	 M24.8,10.7c0,0.7-0.6,1.3-1.3,1.3h-3V7.3h3c0.7,0,1.3,0.6,1.3,1.3V10.7z M24.8,16.5c0,0.7-0.6,1.3-1.3,1.3h-3v-4.7h3
	c0.7,0,1.3,0.6,1.3,1.3V16.5z M24.8,22.4c0,0.7-0.6,1.3-1.3,1.3h-3.2c0.1-0.3,0.2-0.6,0.2-1V19h3c0.7,0,1.3,0.6,1.3,1.3V22.4z
	 M19.3,22.7c0,0.7-0.6,1.3-1.3,1.3H2.5c-0.7,0-1.3-0.6-1.3-1.3V2.5c0-0.7,0.6-1.3,1.3-1.3H18c0.7,0,1.3,0.6,1.3,1.3V22.7z M25.9,4.9
	V2.8c0-1.3-1.1-2.4-2.4-2.4h-4.2C18.9,0.1,18.5,0,18,0H2.5C1.1,0,0,1.1,0,2.5v20.2c0,1.4,1.1,2.5,2.5,2.5H18c0.5,0,0.9-0.1,1.3-0.4
	h4.2c1.3,0,2.4-1.1,2.4-2.4v-2.1c0-0.7-0.3-1.4-0.9-1.8c0.5-0.4,0.9-1.1,0.9-1.8v-2.1c0-0.7-0.3-1.4-0.9-1.8
	c0.5-0.4,0.9-1.1,0.9-1.8V8.6c0-0.7-0.3-1.4-0.9-1.8C25.6,6.3,25.9,5.6,25.9,4.9L25.9,4.9z"/>
<defs>
	<filter id="Adobe_OpacityMaskFilter_1_" filterUnits="userSpaceOnUse" x="4.6" y="5.9" width="11.4" height="11.5">
		<feColorMatrix  type="matrix" values="1 0 0 0 0  0 1 0 0 0  0 0 1 0 0  0 0 0 1 0"/>
	</filter>
</defs>
<mask maskUnits="userSpaceOnUse" x="4.6" y="5.9" width="11.4" height="11.5" id="mask-4">
	<g class="st5">
		<polygon id="path-3" class="st3" points="0,25.1 25.9,25.1 25.9,0 0,0 		"/>
	</g>
</mask>
<path id="Fill-6" class="st6" d="M7.8,14C7.9,13.9,8,13.8,8,13.6c0-0.2-0.1-0.4-0.2-0.5c-0.7-0.7-1.2-1.6-1.2-2.6
	C6.7,8.6,8.3,7,10.2,7c1.9,0,3.5,1.6,3.5,3.5c0,1-0.4,1.9-1.2,2.6c-0.1,0.1-0.2,0.3-0.2,0.5c0,0.2,0.1,0.3,0.3,0.4
	c0.9,0.5,1.5,1.3,1.9,2.2H5.9C6.3,15.3,6.9,14.6,7.8,14 M5.1,17.4h10.2c0.2,0,0.3-0.1,0.4-0.2c0.1-0.1,0.2-0.3,0.1-0.5
	c-0.3-1.3-1-2.4-2-3.3c0.7-0.8,1.1-1.9,1.1-2.9c0-2.6-2.1-4.6-4.7-4.6c-2.6,0-4.7,2.1-4.7,4.6c0,1.1,0.4,2.1,1.1,2.9
	c-1,0.8-1.8,2-2,3.3c0,0.2,0,0.3,0.1,0.5C4.8,17.3,5,17.4,5.1,17.4"/>
</svg>
