<?xml version="1.0" encoding="utf-8"?>
<!-- Generator: Adobe Illustrator 21.0.2, SVG Export Plug-In . SVG Version: 6.00 Build 0)  -->
<svg version="1.1" id="Layer_1" xmlns="http://www.w3.org/2000/svg" xmlns:xlink="http://www.w3.org/1999/xlink" x="0px" y="0px"
	 viewBox="0 0 24 22" style="enable-background:new 0 0 24 22;" xml:space="preserve">
<style type="text/css">
	.st0{display:none;}
	.st1{display:inline;}
</style>
<g class="st0">
	<g transform="translate(-109 -1130)" class="st1">
		<g>
			<g>
				<defs>
					<rect id="SVGID_1_" x="109" y="1141" width="24" height="11"/>
				</defs>
				<clipPath id="SVGID_2_">
					<use xlink:href="#SVGID_1_"  style="overflow:visible;"/>
				</clipPath>
			</g>
		</g>
	</g>
</g>
<path id="jcocc" d="M23.3,11.1c-0.4,0-0.7,0.3-0.7,0.7v6c0,1.7-1.4,3-3.1,2.9H4.5c-1.7,0-3-1.3-3.1-2.9v-6.1c0-0.4-0.3-0.7-0.7-0.7
	C0.3,11,0,11.3,0,11.7v6.1C0,20.1,2,22,4.5,22h15.1c2.4,0.1,4.4-1.9,4.5-4.3c0,0,0,0,0,0v-6C24,11.4,23.7,11.1,23.3,11.1"/>
<path id="jcocd" d="M12,16.8c0.3,0.3,0.8,0.3,1.1,0l4.8-4.4c0.3-0.3,0.3-0.7,0-1c-0.3-0.3-0.8-0.3-1.1,0l-3.5,3.2v-14
	c0-0.4-0.3-0.7-0.8-0.7c-0.4,0-0.7,0.3-0.7,0.7v14l-3.5-3.2c-0.3-0.3-0.8-0.3-1.1,0c-0.3,0.3-0.3,0.7,0,1L12,16.8z"/>
</svg>
