<?xml version="1.0" encoding="utf-8"?>
<!-- Generator: Adobe Illustrator 21.0.2, SVG Export Plug-In . SVG Version: 6.00 Build 0)  -->
<svg version="1.1" id="Layer_1" xmlns="http://www.w3.org/2000/svg" xmlns:xlink="http://www.w3.org/1999/xlink" x="0px" y="0px"
	 viewBox="0 0 52.7 22.9" style="enable-background:new 0 0 52.7 22.9;" xml:space="preserve">
<style type="text/css">
	.st0{clip-path:url(#SVGID_2_);}
	.st1{clip-path:url(#SVGID_4_);}
	.st2{clip-path:url(#SVGID_6_);}
	.st3{clip-path:url(#SVGID_8_);}
</style>
<g>
	<g>
		<defs>
			<path id="SVGID_1_" d="M50.4,15c-1.2-1.2-2.7-2-4.5-2.4c2.5-0.9,4.4-3.3,4.4-6.1c0-3.6-2.9-6.5-6.4-6.5c-3.5,0-6.4,2.9-6.4,6.5
				c0,2.9,1.8,5.3,4.4,6.1C40,13,38.5,13.8,37.3,15c-1.5,1.6-2.3,3.8-2.3,6.4c0,0.8,0.7,1.5,1.5,1.5h14.7c0.8,0,1.5-0.7,1.5-1.5
				C52.7,18.8,51.9,16.6,50.4,15z M40.4,6.5c0-1.9,1.5-3.5,3.4-3.5c1.9,0,3.4,1.6,3.4,3.5c0,1.9-1.5,3.5-3.4,3.5
				C41.9,9.9,40.4,8.4,40.4,6.5z M38.1,19.9c0.2-1.1,0.6-2,1.3-2.8c1-1.1,2.6-1.7,4.4-1.7c1.8,0,3.4,0.6,4.4,1.7
				c0.7,0.7,1.1,1.7,1.3,2.8H38.1z"/>
		</defs>
		<use xlink:href="#SVGID_1_"  style="overflow:visible;fill-rule:evenodd;clip-rule:evenodd;"/>
		<clipPath id="SVGID_2_">
			<use xlink:href="#SVGID_1_"  style="overflow:visible;"/>
		</clipPath>
		<g class="st0">
			<g>
				<rect x="30" y="-5" width="27.7" height="32.9"/>
			</g>
		</g>
	</g>
	<g>
		<defs>
			<path id="SVGID_3_" d="M15.5,15c-1.2-1.2-2.8-2-4.6-2.4c2.6-0.9,4.4-3.3,4.4-6.1c0-3.6-2.9-6.5-6.4-6.5S2.5,2.9,2.5,6.5
				c0,2.9,1.8,5.3,4.4,6.1C5.1,13,3.5,13.8,2.3,15c-1.6,1.6-2.4,3.8-2.3,6.4c0,0.8,0.7,1.5,1.5,1.5h14.8c0.8,0,1.5-0.7,1.5-1.5
				C17.9,18.8,17.1,16.6,15.5,15z M5.5,6.5C5.5,4.6,7,3,8.9,3c1.9,0,3.4,1.6,3.4,3.5c0,1.9-1.5,3.5-3.4,3.5C7,9.9,5.5,8.4,5.5,6.5z
				 M3.1,19.9c0.2-1.1,0.6-2,1.4-2.8c1-1.1,2.6-1.7,4.5-1.7c1.8,0,3.4,0.6,4.5,1.7c0.7,0.7,1.2,1.7,1.3,2.8H3.1z"/>
		</defs>
		<use xlink:href="#SVGID_3_"  style="overflow:visible;fill-rule:evenodd;clip-rule:evenodd;"/>
		<clipPath id="SVGID_4_">
			<use xlink:href="#SVGID_3_"  style="overflow:visible;"/>
		</clipPath>
		<g class="st1">
			<g>
				<rect x="-5" y="-5" width="27.8" height="32.9"/>
			</g>
		</g>
	</g>
	<g>
		<defs>
			<path id="SVGID_5_" d="M22.8,14.1c-0.2,0-0.4-0.1-0.5-0.2l-2.1-2.2c-0.3-0.4-0.3-0.9,0-1.3l2.1-2.2c0.3-0.3,0.8-0.3,1.1,0
				c0.3,0.3,0.3,0.8,0,1.1l-0.9,0.9h8l-0.8-0.9c-0.3-0.3-0.3-0.8,0-1.2c0.3-0.3,0.8-0.3,1.1,0l2.1,2.2c0.3,0.4,0.3,0.9,0,1.3
				l-2.1,2.2c-0.1,0.2-0.3,0.2-0.6,0.2c0,0,0,0,0,0c-0.2,0-0.4-0.1-0.6-0.2c-0.3-0.3-0.3-0.8,0-1.1l0.9-0.9h-8l0.8,0.9
				c0.3,0.3,0.3,0.8,0,1.2C23.2,14,23,14.1,22.8,14.1z M22.8,8.1c-0.1,0-0.3,0.1-0.4,0.2l-2.1,2.2c-0.2,0.3-0.2,0.7,0,0.9l2.1,2.2
				c0.2,0.2,0.5,0.2,0.7,0c0.2-0.2,0.2-0.6,0-0.8l-1.2-1.3h9.2l-1.2,1.3c-0.2,0.2-0.2,0.6,0,0.8c0.1,0.1,0.2,0.2,0.4,0.2l0,0
				c0.1,0,0.3-0.1,0.4-0.2l2.1-2.2c0.2-0.3,0.2-0.7,0-0.9l-2.1-2.2c-0.2-0.2-0.5-0.2-0.7,0c-0.2,0.2-0.2,0.6,0,0.8l1.2,1.3h-9.2
				l1.2-1.3c0.2-0.2,0.2-0.6,0-0.8C23,8.2,22.9,8.1,22.8,8.1z"/>
		</defs>
		<use xlink:href="#SVGID_5_"  style="overflow:visible;"/>
		<clipPath id="SVGID_6_">
			<use xlink:href="#SVGID_5_"  style="overflow:visible;"/>
		</clipPath>
		<g class="st2">
			<defs>
				<path id="SVGID_7_" d="M34.1,15.1H18.9V6.9h15.2V15.1z M19.1,14.9h14.7V7.1H19.1V14.9z"/>
			</defs>
			<use xlink:href="#SVGID_7_"  style="overflow:visible;"/>
			<clipPath id="SVGID_8_">
				<use xlink:href="#SVGID_7_"  style="overflow:visible;"/>
			</clipPath>
			<g class="st3">
				<g>
					<rect x="15" y="3" width="23" height="16"/>
					<path d="M38.1,19.1H14.9V2.9h23.2V19.1z M15.1,18.9h22.8V3.1H15.1V18.9z"/>
				</g>
			</g>
		</g>
	</g>
</g>
</svg>
