<?xml version="1.0" encoding="utf-8"?>
<!-- Generator: Adobe Illustrator 21.0.2, SVG Export Plug-In . SVG Version: 6.00 Build 0)  -->
<svg version="1.1" id="Layer_1" xmlns="http://www.w3.org/2000/svg" xmlns:xlink="http://www.w3.org/1999/xlink" x="0px" y="0px"
	 viewBox="0 0 23.2 18.7" style="enable-background:new 0 0 23.2 18.7;" xml:space="preserve">
<title>Fill 4</title>
<desc>Created with Sketch.</desc>
<path id="Fill-4" d="M23.2,2.2c-0.9,0.4-1.8,0.6-2.7,0.7c1-0.6,1.7-1.5,2.1-2.6c-0.9,0.5-1.9,0.9-3,1.1C18.7,0.6,17.5,0,16.1,0
	c-2.6,0-4.8,2.1-4.8,4.7c0,0.4,0,0.7,0.1,1.1C7.5,5.6,4,3.7,1.6,0.9C1.2,1.6,1,2.4,1,3.2c0,1.6,0.8,3.1,2.1,3.9
	c-0.8,0-1.5-0.2-2.2-0.6v0.1c0,2.3,1.6,4.2,3.8,4.6c-0.4,0.1-0.8,0.2-1.3,0.2c-0.3,0-0.6,0-0.9-0.1c0.6,1.9,2.4,3.2,4.5,3.3
	c-1.6,1.3-3.7,2-5.9,2c-0.4,0-0.8,0-1.1-0.1c2.1,1.3,4.6,2.1,7.3,2.1c8.8,0,13.6-7.2,13.6-13.4c0-0.2,0-0.4,0-0.6
	C21.8,4,22.6,3.2,23.2,2.2"/>
</svg>
