<?xml version="1.0" encoding="utf-8"?>
<!-- Generator: Adobe Illustrator 21.0.2, SVG Export Plug-In . SVG Version: 6.00 Build 0)  -->
<svg version="1.1" id="Layer_1" xmlns="http://www.w3.org/2000/svg" xmlns:xlink="http://www.w3.org/1999/xlink" x="0px" y="0px"
	 viewBox="0 0 19 16" style="enable-background:new 0 0 19 16;" xml:space="preserve">
<path id="gc1ca" d="M19,2.6v10.8c0,1.4-1.1,2.6-2.5,2.6h-14C1.1,16,0,14.8,0,13.4V2.6v0v0C0,1.2,1.1,0,2.5,0h14
	C17.9,0,19,1.1,19,2.6L19,2.6 M2.5,1.6c-0.4,0-0.8,0.3-0.9,0.6l7.9,5.7l7.9-5.7c-0.1-0.4-0.5-0.6-0.9-0.6L2.5,1.6 M16.5,14.4
	c0.5,0,1-0.5,1-1V4.1L9.9,9.6c-0.3,0.2-0.6,0.2-0.9,0L1.5,4.1v9.3c0,0.5,0.4,1,1,1L16.5,14.4"/>
</svg>
