<?xml version="1.0" encoding="utf-8"?>
<!-- Generator: Adobe Illustrator 21.0.2, SVG Export Plug-In . SVG Version: 6.00 Build 0)  -->
<svg version="1.1" id="Layer_1" xmlns="http://www.w3.org/2000/svg" xmlns:xlink="http://www.w3.org/1999/xlink" x="0px" y="0px"
	 viewBox="0 0 37 34.3" style="enable-background:new 0 0 37 34.3;" xml:space="preserve">
<style type="text/css">
	.st0{display:none;}
	.st1{display:inline;fill:#FFFFFF;}
	.st2{display:inline;}
</style>
<g class="st0">
	<polygon id="path-1" class="st1" points="0,34.3 0,0 36.9,0 36.9,34.3 	"/>
</g>
<title>message</title>
<desc>Created with Sketch.</desc>
<g id="Page-1_1_" class="st0">
	<g id="_x32_.8---Profile-bis-add" transform="translate(-287.000000, -576.000000)" class="st2">
		<g id="BUTTON-PRIMARY-Copy" transform="translate(265.000000, 554.000000)">
			<g id="message" transform="translate(22.000000, 22.000000)">
				<g id="Page-1">
					<g id="Group-3" transform="translate(0.000000, 0.104264)">
						<g id="Clip-2">
						</g>
					</g>
				</g>
			</g>
		</g>
	</g>
</g>
<path id="Fill-4" d="M13.7,14.9c0,1-0.8,1.7-1.7,1.7c-1,0-1.7-0.8-1.7-1.7c0-1,0.8-1.7,1.7-1.7C12.9,13.1,13.7,13.9,13.7,14.9"/>
<path id="Fill-6" d="M20.2,14.9c0,1-0.8,1.7-1.7,1.7c-1,0-1.7-0.8-1.7-1.7c0-1,0.8-1.7,1.7-1.7C19.4,13.1,20.2,13.9,20.2,14.9"/>
<path id="Fill-8" d="M26.7,14.9c0,1-0.8,1.7-1.7,1.7c-1,0-1.7-0.8-1.7-1.7c0-1,0.8-1.7,1.7-1.7C25.9,13.1,26.7,13.9,26.7,14.9"/>
<path id="Fill-1" d="M34.8,6.6l-1.7,16c-0.2,2-1.9,3.6-3.9,3.6H28c-0.5,0-1,0.4-1,0.9l-0.9,4.7c-0.1,0.3-0.4,0.4-0.6,0.2l-3.7-3.8
	c1.1-0.4,0.8-2.1-0.4-2.1H8c-2,0-3.7-1.5-3.9-3.6l-1.7-16C2.1,4.1,4,2.1,6.3,2.1H31C33.2,2.2,35,4.2,34.8,6.6 M30.8,0H6.1
	C2.5,0-0.4,3.2,0,6.8l1.7,16c0.3,3.1,2.9,5.5,6.1,5.5h10.9l5.1,5.2c1.4,1.5,3.9,0.7,4.3-1.3l0.7-3.9c3.7,0,6.1-2.5,6.4-5.5l1.7-16
	C37.3,3.2,34.4,0,30.8,0"/>
</svg>
