<?xml version="1.0" encoding="utf-8"?>
<!-- Generator: Adobe Illustrator 21.0.2, SVG Export Plug-In . SVG Version: 6.00 Build 0)  -->
<svg version="1.1" id="Layer_1" xmlns="http://www.w3.org/2000/svg" xmlns:xlink="http://www.w3.org/1999/xlink" x="0px" y="0px"
	 viewBox="0 0 16.7 16.7" style="enable-background:new 0 0 16.7 16.7;" xml:space="preserve">
<style type="text/css">
	.st0{display:none;}
	.st1{display:inline;fill:#604F4E;}
</style>
<title>Fill 1</title>
<desc>Created with Sketch.</desc>
<g class="st0">
	<path id="Fill-1_1_" class="st1" d="M10.5,10.9c-2.6,0-4.7-2.1-4.7-4.7s2.1-4.7,4.7-4.7s4.7,2.1,4.7,4.7S13.1,10.9,10.5,10.9
		L10.5,10.9z M2.2,15.1c-0.2,0.2-0.4,0.2-0.6,0c-0.2-0.2-0.2-0.4,0-0.6l4.6-4.6c0.2,0.2,0.4,0.4,0.6,0.6L2.2,15.1z M10.5,0.5
		c-3.1,0-5.6,2.5-5.6,5.6c0,1.1,0.3,2.1,0.8,2.9l-4.7,4.7c-0.5,0.5-0.5,1.4,0,1.9c0.3,0.3,0.6,0.4,0.9,0.4s0.7-0.1,0.9-0.4L7.6,11
		c0.8,0.5,1.8,0.8,2.9,0.8c3.1,0,5.6-2.5,5.6-5.6C16.1,3.1,13.6,0.5,10.5,0.5L10.5,0.5z"/>
</g>
<path d="M1.9,16.7c-0.5,0-1-0.2-1.3-0.6C0.2,15.7,0,15.3,0,14.8s0.2-1,0.6-1.3L5,9C4.6,8.1,4.3,7.2,4.3,6.2C4.3,2.8,7.1,0,10.5,0
	s6.2,2.8,6.2,6.2s-2.8,6.2-6.2,6.2c-1,0-1.9-0.2-2.8-0.7l-4.4,4.4C2.9,16.5,2.4,16.7,1.9,16.7z M10.5,2C8.2,2,6.3,3.9,6.3,6.2
	c0,2.3,1.9,4.2,4.2,4.2c2.3,0,4.2-1.9,4.2-4.2C14.6,3.9,12.8,2,10.5,2z"/>
</svg>
