<?xml version="1.0" encoding="UTF-8"?>
<svg width="18px" height="18px" viewBox="0 0 18 18" version="1.1" xmlns="http://www.w3.org/2000/svg" xmlns:xlink="http://www.w3.org/1999/xlink">
    <!-- Generator: Sketch 49.3 (51167) - http://www.bohemiancoding.com/sketch -->
    <title>Fill 1</title>
    <desc>Created with Sketch.</desc>
    <defs></defs>
    <g id="Page-1" stroke="none" stroke-width="1" fill="none" fill-rule="evenodd">
        <g id="2.6---CMA-CGM-Members" transform="translate(-327.000000, -25.000000)" fill="#604F4E" stroke="#604F4E" stroke-width="1.1">
            <g id="list" transform="translate(318.000000, 16.000000)">
                <path d="M20.0482172,20.4368666 C17.4525966,20.4368666 15.3408995,18.3251704 15.3408995,15.7295508 C15.3408995,13.1339311 17.4525966,11.0222045 20.0482172,11.0222045 C22.6438379,11.0222045 24.7555349,13.1339007 24.7555349,15.7295204 C24.7555349,18.32514 22.6438683,20.4368666 20.0482172,20.4368666 L20.0482172,20.4368666 Z M11.7474143,24.6316393 C11.5816504,24.7974031 11.3119195,24.7974335 11.1461252,24.6316393 C10.9803613,24.4658755 10.9803613,24.1961143 11.1461252,24.0303505 L15.788061,19.3884165 C15.9731478,19.6036117 16.1741851,19.8046186 16.38935,19.9897053 L11.7474143,24.6316393 Z M20.0482172,10.1111111 C16.9502311,10.1111111 14.4298058,12.6315355 14.4298058,15.7295508 C14.4298058,16.7952578 14.7280653,17.7926055 15.2455002,18.6424793 L10.5018761,23.3861016 C9.98085612,23.9071213 9.98085612,24.7548988 10.5018761,25.2758578 C10.7623709,25.5364132 11.1045627,25.6666606 11.4467546,25.6666606 C11.7889464,25.6666606 12.1311382,25.5364132 12.391633,25.2758578 L17.1352572,20.5322659 C17.9851921,21.0496702 18.9825098,21.3479296 20.0482172,21.3479296 C23.1462337,21.3479296 25.6666591,18.8275053 25.6666591,15.7295508 C25.6666591,12.6315659 23.1462337,10.1111111 20.0482172,10.1111111 L20.0482172,10.1111111 Z" id="Fill-1"></path>
            </g>
        </g>
    </g>
</svg>