<?xml version="1.0" encoding="utf-8"?>
<!-- Generator: Adobe Illustrator 21.0.2, SVG Export Plug-In . SVG Version: 6.00 Build 0)  -->
<svg version="1.1" id="Layer_1" xmlns="http://www.w3.org/2000/svg" xmlns:xlink="http://www.w3.org/1999/xlink" x="0px" y="0px"
	 viewBox="0 0 24.9 9.8" style="enable-background:new 0 0 24.9 9.8;" xml:space="preserve">
<style type="text/css">
	.st0{display:none;}
	.st1{display:inline;}
	.st2{clip-path:url(#SVGID_3_);}
	.st3{clip-path:url(#SVGID_4_);}
</style>
<g class="st0">
	<g class="st1">
		<defs>
			<polygon id="SVGID_1_" points="-204,-383 -203,-383 -204,-382 			"/>
		</defs>
		<defs>
			<polygon id="SVGID_2_" points="-206,-385 -207,-385 -206,-386 			"/>
		</defs>
		<clipPath id="SVGID_3_">
			<use xlink:href="#SVGID_1_"  style="overflow:visible;"/>
		</clipPath>
		<clipPath id="SVGID_4_" class="st2">
			<use xlink:href="#SVGID_2_"  style="overflow:visible;"/>
		</clipPath>
		<g class="st3">
			<g>
				<g>
					<defs>
						<rect id="SVGID_5_" x="205" y="384" width="6.6" height="9.8"/>
					</defs>
					<clipPath id="SVGID_6_">
						<use xlink:href="#SVGID_5_"  style="overflow:visible;"/>
					</clipPath>
				</g>
				<g transform="translate(-205 -384)">
					<g>
						<defs>
							<rect id="SVGID_7_" x="223.2" y="384" width="6.6" height="9.8"/>
						</defs>
						<clipPath id="SVGID_8_">
							<use xlink:href="#SVGID_7_"  style="overflow:visible;"/>
						</clipPath>
					</g>
				</g>
			</g>
		</g>
	</g>
</g>
<path id="iurcd" d="M2.9,9.8c-0.8,0-1.4-0.1-1.9-0.2c-0.4-0.1-0.7-0.2-1-0.4C0,9.2,0,9.1,0,8.9c0-0.3,0.1-0.7,0.2-1
	c0.1-0.1,0.1-0.2,0.2-0.2l1,0.3c0.9,0.2,1.9,0.2,2.8-0.1C4.5,7.8,4.7,7.4,4.7,7c0-0.4-0.1-0.6-0.4-0.9C4.1,6,3.6,5.7,3,5.5
	C2.6,5.3,2.3,5.2,2,5C1.6,4.8,1.4,4.6,1.1,4.4C0.6,3.9,0.3,3.2,0.4,2.5c0-0.4,0.1-0.7,0.2-1C0.7,1.2,0.9,1,1.2,0.7
	c0.3-0.2,0.6-0.4,1.1-0.5C2.7,0.1,3.2,0,3.8,0c0.5,0,1.1,0,1.6,0.1c0.2,0,0.3,0.1,0.4,0.1l0.3,0.1c0.1,0,0.1,0.1,0.1,0.3
	c0,0.4-0.1,0.7-0.2,1C5.9,1.8,5.8,1.8,5.7,1.8L4.9,1.6c-0.3-0.1-0.7-0.1-1-0.1c-0.6,0-1.1,0.1-1.4,0.3C2.3,1.9,2.2,2.2,2.2,2.5
	c0,0.3,0.1,0.6,0.4,0.8c0.3,0.2,0.7,0.4,1.3,0.6C4.8,4.3,5.5,4.7,6,5.2C6.4,5.7,6.6,6.3,6.6,7c0,0.5-0.1,1-0.3,1.4
	C6.1,8.7,5.8,9,5.5,9.2C5.1,9.4,4.7,9.5,4.3,9.6C3.9,9.7,3.4,9.8,2.9,9.8"/>
<path id="iurce" d="M15.4,9.7c-0.2,0-0.4,0-0.5-0.1c-0.1-0.1-0.1-0.2-0.1-0.5v-6l-1.1,1.7l-0.6,0.9C13.1,5.8,13,6,13,6.1l-0.2,0.3
	c-0.1,0-0.1,0.1-0.3,0.1h-0.3c-0.1,0-0.2,0-0.3-0.1c-0.1-0.1-0.1-0.2-0.2-0.3l-1.8-3v6.1c0,0.1,0,0.3-0.1,0.4
	C9.8,9.6,9.7,9.7,9.5,9.7H8.7c-0.2,0-0.3,0-0.4-0.1c-0.1,0-0.2-0.2-0.2-0.5V0.8c0-0.2,0-0.4,0.1-0.5c0.1-0.1,0.2-0.1,0.4-0.1h0.9
	c0.1,0,0.2,0,0.3,0c0.1,0,0.2,0.1,0.3,0.3l2.3,3.7l2.3-3.6c0.1-0.1,0.1-0.2,0.2-0.3c0.1,0,0.2-0.1,0.3-0.1h0.9c0.2,0,0.4,0,0.4,0.1
	c0,0.1,0.1,0.2,0.1,0.5v8.4c0,0.1,0,0.3-0.1,0.4c-0.1,0.1-0.2,0.1-0.4,0.1L15.4,9.7z"/>
<path id="iurcg" d="M21.1,9.8c-0.8,0-1.4-0.1-1.9-0.2c-0.4-0.1-0.7-0.2-1-0.4c-0.1,0-0.1-0.1-0.1-0.3c0-0.3,0.1-0.7,0.2-1
	c0.1-0.1,0.1-0.2,0.2-0.2l1,0.3c0.9,0.2,1.9,0.2,2.8-0.1c0.4-0.1,0.6-0.5,0.6-0.9c0-0.4-0.1-0.6-0.4-0.9c-0.3-0.2-0.7-0.5-1.4-0.7
	c-0.4-0.1-0.7-0.3-1-0.5c-0.3-0.2-0.6-0.4-0.9-0.6c-0.5-0.5-0.8-1.2-0.8-1.9c0-0.4,0.1-0.7,0.2-1c0.1-0.3,0.3-0.6,0.6-0.8
	c0.3-0.2,0.6-0.4,1.1-0.5C20.9,0.1,21.4,0,22,0c0.5,0,1.1,0,1.6,0.1c0.2,0,0.3,0.1,0.4,0.1l0.3,0.1c0.1,0,0.1,0.1,0.1,0.3
	c0,0.4-0.1,0.7-0.3,1c-0.1,0.1-0.2,0.2-0.2,0.2l-0.8-0.2c-0.3-0.1-0.7-0.1-1-0.1c-0.6,0-1.1,0.1-1.4,0.3c-0.2,0.2-0.4,0.4-0.4,0.7
	c0,0.3,0.1,0.6,0.4,0.8c0.3,0.2,0.7,0.4,1.3,0.6c0.9,0.4,1.6,0.8,2.1,1.3c0.4,0.5,0.7,1.1,0.7,1.8c0,0.5-0.1,1-0.3,1.4
	C24.3,8.7,24,9,23.7,9.2c-0.4,0.2-0.7,0.4-1.2,0.4C22.1,9.7,21.6,9.8,21.1,9.8"/>
</svg>
