<svg xmlns="http://www.w3.org/2000/svg" xmlns:xlink="http://www.w3.org/1999/xlink" width="15" height="19" viewBox="0 0 15 19"><defs><path id="vquva" d="M224.6 425.33a2.28 2.28 0 0 1 1.88 2.24v6.16a2.28 2.28 0 0 1-2.27 2.27h-9.3a2.28 2.28 0 0 1-2.28-2.27v-6.16c0-1.12.82-2.05 1.89-2.24v-1.76c0-2.52 2.26-4.57 5.04-4.57 2.77 0 5.03 2.05 5.03 4.57zm-9.45-.03h8.81v-1.73c0-2.17-1.97-3.94-4.4-3.94-2.43 0-4.41 1.77-4.41 3.94zm10.7 2.27c0-.9-.74-1.64-1.64-1.64h-9.3c-.91 0-1.65.73-1.65 1.64v6.16c0 .9.74 1.64 1.65 1.64h9.3c.9 0 1.64-.74 1.64-1.64z"/></defs><g><g transform="translate(-212 -418)"><use fill="#604f4e" xlink:href="#vquva"/><use fill="#fff" fill-opacity="0" stroke="#604f4e" stroke-miterlimit="50" xlink:href="#vquva"/></g></g></svg>