<svg xmlns="http://www.w3.org/2000/svg" xmlns:xlink="http://www.w3.org/1999/xlink" width="26" height="26" viewBox="0 0 26 26"><defs><path id="eqcpa" d="M64.95 253.22H52V228.1h25.91v25.13H64.95z"/><path id="eqcpd" d="M77.9 233c0 .74-.33 1.4-.86 1.84.53.44.87 1.1.87 1.83v2.15c0 .74-.34 1.4-.87 1.84.53.44.87 1.1.87 1.83v2.15c0 .73-.34 1.4-.87 1.84.53.44.87 1.1.87 1.83v2.15c0 1.32-1.1 2.4-2.44 2.4h-4.19a2.5 2.5 0 0 1-1.3.36H54.5c-1.37 0-2.49-1.1-2.49-2.46v-20.2a2.48 2.48 0 0 1 2.5-2.47h15.48c.48 0 .92.13 1.3.36h4.2a2.42 2.42 0 0 1 2.43 2.4zm-6.57-2.45c0-.73-.6-1.32-1.35-1.32H54.5c-.74 0-1.34.6-1.34 1.32v20.21c0 .73.6 1.33 1.34 1.33H70c.73 0 1.34-.6 1.34-1.33zm5.43 17.76c0-.7-.58-1.27-1.29-1.27h-3v3.72c0 .34-.06.67-.2.97h3.2c.71 0 1.29-.57 1.29-1.27zm0-5.82c0-.7-.58-1.27-1.29-1.27h-3v4.69h3c.71 0 1.29-.57 1.29-1.27zm0-5.82c0-.7-.58-1.26-1.29-1.26h-3v4.68h3c.71 0 1.29-.57 1.29-1.27zm0-5.81c0-.7-.58-1.27-1.29-1.27h-3.2c.14.3.2.62.2.96v3.72h3c.71 0 1.29-.57 1.29-1.27z"/><path id="eqcpb" d="M52 253.22h25.9V228.1H52z"/><path id="eqcpf" d="M57.14 245.5h10.2c.18 0 .34-.08.45-.21.11-.14.16-.31.12-.48a5.74 5.74 0 0 0-2.03-3.26 4.6 4.6 0 0 0-3.64-7.54 4.6 4.6 0 1 0-3.64 7.54 5.74 5.74 0 0 0-2.03 3.26.58.58 0 0 0 .56.69m2.65-3.38a.57.57 0 0 0 .08-.9 3.48 3.48 0 0 1 2.38-6.07 3.48 3.48 0 1 1 2.38 6.07.56.56 0 0 0 .08.9 4.64 4.64 0 0 1 1.88 2.24H57.9a4.63 4.63 0 0 1 1.87-2.24"/><clipPath id="eqcpc"><use xlink:href="#eqcpa"/></clipPath><clipPath id="eqcpe"><use xlink:href="#eqcpb"/></clipPath></defs><g><g transform="translate(-52 -228)"><g><g/><g clip-path="url(#eqcpc)"><use fill="#604f4e" xlink:href="#eqcpd"/></g></g><g/><g clip-path="url(#eqcpe)"><use fill="#604f4e" xlink:href="#eqcpf"/></g></g></g></svg>