<svg xmlns="http://www.w3.org/2000/svg" xmlns:xlink="http://www.w3.org/1999/xlink" width="24" height="22" viewBox="0 0 24 22"><defs><path id="jcoca" d="M109 1141.02h24V1152h-24z"/><path id="jcocc" d="M132.31 1141.12c-.38 0-.69.29-.69.65v5.97a3.02 3.02 0 0 1-3.08 2.95h-15.08a3.02 3.02 0 0 1-3.08-2.95v-6.06c0-.37-.31-.66-.7-.66-.37 0-.68.3-.68.66v6.06c0 2.35 2 4.26 4.46 4.26h15.08a4.36 4.36 0 0 0 4.46-4.26v-5.97c0-.36-.3-.65-.69-.65"/><path id="jcocd" d="M120.98 1146.8a.79.79 0 0 0 1.05 0l4.75-4.38c.3-.27.3-.7 0-.97a.8.8 0 0 0-1.06 0l-3.47 3.2v-13.96c0-.38-.33-.69-.75-.69-.41 0-.74.3-.74.69v13.96l-3.48-3.2a.8.8 0 0 0-1.06 0c-.3.27-.3.7 0 .97z"/><clipPath id="jcocb"><use xlink:href="#jcoca"/></clipPath></defs><g><g transform="translate(-109 -1130)"><g><g/><g clip-path="url(#jcocb)"><use fill="#4552fb" xlink:href="#jcocc"/></g></g><g><use fill="#4552fb" xlink:href="#jcocd"/></g></g></g></svg>