<svg xmlns="http://www.w3.org/2000/svg" xmlns:xlink="http://www.w3.org/1999/xlink" width="35" height="22" viewBox="0 0 35 22"><defs><path id="xdgma" d="M281.25 428.82v3.06h3.08v3.05h-3.08V438h-3.08v-3.05h-3.08v-3.06h3.08v-3.06z"/><path id="xdgmb" d="M253.52 441.05a10.86 10.86 0 0 1 .17-15.28 10.62 10.62 0 0 1 11.47-2.21l1.54.85 1.71 1.19-2.74 2.71-1.02-.68a6.57 6.57 0 0 0-8.05 1.02 7.1 7.1 0 0 0 0 9.86c2.57 2.71 7.2 2.71 9.59 0a5.4 5.4 0 0 0 1.54-2.72v-.34h-6.16v-3.4h9.75l.17.85v2.38a9.45 9.45 0 0 1-2.56 5.94c-4.11 3.9-11.3 3.9-15.41-.17"/></defs><g><g transform="translate(-250 -422)"><use fill="#fff" xlink:href="#xdgma"/></g><g transform="translate(-250 -422)"><use fill="#fff" xlink:href="#xdgmb"/></g></g></svg>