<svg xmlns="http://www.w3.org/2000/svg" xmlns:xlink="http://www.w3.org/1999/xlink" width="20" height="20" viewBox="0 0 20 20"><defs><path id="jiz2a" d="M335 737a10.01 10.01 0 0 0 0 20 10.01 10.01 0 0 0 0-20m0 18.67a8.68 8.68 0 0 1 0-17.34 8.68 8.68 0 0 1 0 17.34"/><path id="jiz2b" d="M334.83 740.51a6.59 6.59 0 0 0-6.67 6.5c0 3.57 3 6.48 6.67 6.48a6.59 6.59 0 0 0 6.66-6.49c0-3.58-2.99-6.49-6.66-6.49m0 11.64a5.25 5.25 0 0 1-5.34-5.15c0-2.84 2.4-5.15 5.34-5.15a5.25 5.25 0 0 1 5.33 5.15c0 2.84-2.4 5.15-5.33 5.15"/><path id="jiz2c" d="M335 743.67a3.34 3.34 0 1 0 .01 6.67 3.34 3.34 0 0 0 0-6.67m0 5.33a2 2 0 1 1 0-4 2 2 0 0 1 0 4"/></defs><g><g transform="translate(-325 -737)"><g><use fill="#4552fb" xlink:href="#jiz2a"/></g><g><use fill="#4552fb" xlink:href="#jiz2b"/></g><g><use fill="#4552fb" xlink:href="#jiz2c"/></g></g></g></svg>