<svg xmlns="http://www.w3.org/2000/svg" xmlns:xlink="http://www.w3.org/1999/xlink" width="23" height="23" viewBox="0 0 23 23"><defs><path id="56gqa" d="M219.1 387.29c2.96 0 3.3 0 4.48.06 1.08.05 1.66.23 2.05.38.52.2.89.44 1.28.83.38.39.62.76.82 1.27.16.4.34.98.39 2.06a77 77 0 0 1 .06 4.48c0 2.96-.01 3.3-.06 4.48a6.13 6.13 0 0 1-.39 2.05c-.2.52-.44.89-.82 1.28-.4.38-.76.62-1.28.83-.39.15-.97.33-2.05.38-1.17.05-1.52.06-4.48.06a77 77 0 0 1-4.48-.06 6.13 6.13 0 0 1-2.06-.38c-.51-.2-.88-.45-1.27-.83a3.43 3.43 0 0 1-.83-1.28c-.15-.39-.33-.97-.38-2.05a77.24 77.24 0 0 1-.06-4.48c0-2.96 0-3.31.06-4.48.05-1.08.23-1.66.38-2.06.2-.51.44-.88.83-1.27.39-.39.76-.63 1.27-.83.4-.15.98-.33 2.06-.38 1.17-.05 1.52-.06 4.48-.06m0-2c-3.01 0-3.39.01-4.57.07a8.13 8.13 0 0 0-2.69.51c-.73.28-1.34.66-1.96 1.28-.62.62-1 1.23-1.28 1.96-.27.7-.46 1.51-.51 2.7a78.97 78.97 0 0 0-.07 4.56c0 3 .01 3.38.07 4.57.05 1.18.24 1.98.51 2.69.28.72.66 1.34 1.28 1.96.62.61 1.23 1 1.96 1.28.7.27 1.51.46 2.7.51 1.17.05 1.55.07 4.56.07 3 0 3.38-.02 4.57-.07a8.13 8.13 0 0 0 2.69-.51 5.43 5.43 0 0 0 1.96-1.28c.61-.62 1-1.24 1.28-1.96.27-.7.46-1.51.51-2.7.05-1.18.07-1.55.07-4.56s-.02-3.39-.07-4.57a8.12 8.12 0 0 0-.51-2.69 5.43 5.43 0 0 0-1.28-1.96c-.62-.62-1.24-1-1.96-1.28a8.13 8.13 0 0 0-2.7-.51 78.19 78.19 0 0 0-4.56-.07"/><path id="56gqb" d="M219.1 390.68a5.69 5.69 0 1 0 0 11.38 5.69 5.69 0 0 0 0-11.38m0 9.38a3.7 3.7 0 1 1 0-7.38 3.7 3.7 0 0 1 0 7.38"/><path id="56gqc" d="M226.35 390.46a1.33 1.33 0 1 1-2.66 0 1.33 1.33 0 0 1 2.66 0"/></defs><g><g transform="translate(-208 -385)"><g><use fill="#fff" xlink:href="#56gqa"/></g><g><use fill="#fff" xlink:href="#56gqb"/></g><g><use fill="#fff" xlink:href="#56gqc"/></g></g></g></svg>