<svg xmlns="http://www.w3.org/2000/svg" xmlns:xlink="http://www.w3.org/1999/xlink" width="19" height="16" viewBox="0 0 19 16"><defs><path id="gc1ca" d="M287 382.59v10.82c0 1.43-1.13 2.59-2.51 2.59H270.5a2.56 2.56 0 0 1-2.51-2.6v-10.8-.01-.02a2.56 2.56 0 0 1 2.51-2.57h13.98c1.38 0 2.5 1.15 2.5 2.57l.01.02m-16.49-1a.98.98 0 0 0-.9.64l7.89 5.7 7.9-5.7a.98.98 0 0 0-.91-.65H270.5m13.98 12.84a1 1 0 0 0 .98-1.01v-9.3l-7.53 5.44a.75.75 0 0 1-.88 0l-7.52-5.44v9.3a1 1 0 0 0 .97 1h13.98"/></defs><g><g transform="translate(-268 -380)"><use fill="#5f4f4d" xlink:href="#gc1ca"/></g></g></svg>