<svg xmlns="http://www.w3.org/2000/svg" xmlns:xlink="http://www.w3.org/1999/xlink" width="55" height="25" viewBox="0 0 55 25"><defs><path id="air7a" d="M329.38 601.01a8.73 8.73 0 0 1 2.28 6.43 1.5 1.5 0 0 1-1.48 1.47h-14.7a1.5 1.5 0 0 1-1.48-1.47 8.74 8.74 0 0 1 2.28-6.43 8.44 8.44 0 0 1 4.53-2.38 6.48 6.48 0 0 1-4.36-6.15 6.44 6.44 0 0 1 6.38-6.48c3.52 0 6.38 2.9 6.38 6.48a6.48 6.48 0 0 1-4.36 6.15 8.43 8.43 0 0 1 4.53 2.38zm-9.96-8.53a3.44 3.44 0 0 0 3.41 3.47 3.44 3.44 0 0 0 3.41-3.47 3.44 3.44 0 0 0-3.4-3.47 3.44 3.44 0 0 0-3.42 3.47zm9.18 13.42a5.12 5.12 0 0 0-1.34-2.78 6.04 6.04 0 0 0-4.43-1.67c-1.82 0-3.4.6-4.43 1.67a5.12 5.12 0 0 0-1.33 2.78z"/><path id="air7b" d="M294.54 601.01a8.68 8.68 0 0 1 2.3 6.43 1.5 1.5 0 0 1-1.5 1.47H280.5a1.5 1.5 0 0 1-1.5-1.47 8.68 8.68 0 0 1 2.3-6.43 8.55 8.55 0 0 1 4.58-2.38 6.49 6.49 0 0 1 2.04-12.63 6.47 6.47 0 0 1 2.05 12.63c1.8.35 3.39 1.16 4.57 2.38zm-10.07-8.53a3.46 3.46 0 0 0 3.45 3.47 3.46 3.46 0 0 0 0-6.94 3.46 3.46 0 0 0-3.45 3.47zm9.28 13.42a5.1 5.1 0 0 0-1.35-2.78 6.13 6.13 0 0 0-4.48-1.67c-1.84 0-3.43.6-4.47 1.67a5.1 5.1 0 0 0-1.35 2.78z"/><path id="air7c" d="M308.77 594.2a.73.73 0 0 0 0 1l1.03 1.1h-8.6l1.05-1.12a.71.71 0 0 0 0-.96l-.01-.01a.62.62 0 0 0-.93 0l-2.1 2.23c-.28.3-.28.8 0 1.11l2.11 2.25a.6.6 0 0 0 .9 0l.01-.01a.73.73 0 0 0 0-.99l-1.03-1.1h8.6l-1.05 1.1a.71.71 0 0 0 0 .97l.01.01c.26.28.68.28.93 0l2.1-2.23c.28-.3.28-.8 0-1.11l-2.1-2.24a.62.62 0 0 0-.92 0"/></defs><g><g transform="translate(-278 -585)"><use fill="#fff" xlink:href="#air7a"/><use fill="#fff" fill-opacity="0" stroke="#4552fb" stroke-miterlimit="50" xlink:href="#air7a"/></g><g transform="translate(-278 -585)"><use fill="#fff" xlink:href="#air7b"/><use fill="#fff" fill-opacity="0" stroke="#4552fb" stroke-miterlimit="50" xlink:href="#air7b"/></g><g transform="translate(-278 -585)"><use fill="#fff" xlink:href="#air7c"/><use fill="#fff" fill-opacity="0" stroke="#fff" stroke-miterlimit="50" stroke-width=".5" xlink:href="#air7c"/></g></g></svg>