<svg xmlns="http://www.w3.org/2000/svg" xmlns:xlink="http://www.w3.org/1999/xlink" width="14" height="15" viewBox="0 0 14 15"><defs><path id="45eha" d="M219 613h14v13h-14z"/><path id="45ehc" d="M231.88 615.52a6.97 6.97 0 0 0-2.9-2.47.5.5 0 0 0-.21-.05c-.1 0-.4.04-.4.52v.8c0 .41.26.6.34.65a4.93 4.93 0 0 1 2.43 4.3 5.08 5.08 0 0 1-4.99 4.92 5.07 5.07 0 0 1-5.29-4.99c0-1.76.93-3.35 2.49-4.27.2-.12.32-.33.32-.62v-.81c0-.36-.24-.49-.44-.49a.58.58 0 0 0-.24.06 6.97 6.97 0 0 0-2.88 2.46 6.63 6.63 0 0 0-1.11 3.67 6.9 6.9 0 0 0 7 6.8c3.86 0 7-3.05 7-6.8 0-1.31-.39-2.58-1.12-3.68"/><path id="45ehd" d="M225.49 619h1.02c.27 0 .49-.3.49-.68v-6.64c0-.37-.22-.68-.49-.68h-1.02c-.27 0-.49.3-.49.68v6.64c0 .37.22.68.49.68"/><clipPath id="45ehb"><use xlink:href="#45eha"/></clipPath></defs><g><g transform="translate(-219 -611)"><g><g/><g clip-path="url(#45ehb)"><use fill="#5f4f4d" xlink:href="#45ehc"/></g></g><g><use fill="#5f4f4d" xlink:href="#45ehd"/></g></g></g></svg>