<svg xmlns="http://www.w3.org/2000/svg" xmlns:xlink="http://www.w3.org/1999/xlink" width="36" height="32" viewBox="0 0 36 32"><defs><path id="319ob" d="M298 1324.57c0 .18.06.35.16.48l5.22 6.76c.15.2.39.3.64.3a.8.8 0 0 0 .64-.3l5.22-6.76c.1-.13.16-.3.16-.48v-21.7a.8.8 0 0 0-.8-.79.8.8 0 0 0-.8.8v21.43l-4.42 5.71-4.42-5.71v-21.4a.8.8 0 0 0-.8-.79.8.8 0 0 0-.8.8z"/><path id="319oc" d="M303.22 1302.91v19.93c0 .44.36.8.8.8a.8.8 0 0 0 .8-.8v-19.93a.8.8 0 0 0-.8-.79.8.8 0 0 0-.8.8"/><path id="319oa" d="M298 1292.94h12.03v7.45H298z"/><path id="319oe" d="M298 1296.05v3.55c0 .44.36.8.8.8h10.43a.8.8 0 0 0 .8-.8v-3.55a3.14 3.14 0 0 0-3.15-3.11h-5.73a3.14 3.14 0 0 0-3.15 3.11m10.43 0v2.76h-8.83v-2.76c0-.84.7-1.53 1.55-1.53h5.73c.86 0 1.55.69 1.55 1.53"/><clipPath id="319od"><use xlink:href="#319oa"/></clipPath></defs><g><g transform="rotate(50 1547.52 356.72)"><g><use fill="#fff" xlink:href="#319ob"/><use fill="#fff" fill-opacity="0" stroke="#fff" stroke-miterlimit="50" xlink:href="#319ob"/></g><g><use fill="#f2f2f2" xlink:href="#319oc"/><use fill="#fff" fill-opacity="0" stroke="#fff" stroke-miterlimit="50" xlink:href="#319oc"/></g><g><g><use fill="#fff" fill-opacity="0" stroke="#fff" stroke-miterlimit="50" xlink:href="#319oa"/></g><g clip-path="url(#319od)"><use fill="#fff" xlink:href="#319oe"/><use fill="#fff" fill-opacity="0" stroke="#fff" stroke-miterlimit="50" xlink:href="#319oe"/></g></g></g></g></svg>