<svg xmlns="http://www.w3.org/2000/svg" xmlns:xlink="http://www.w3.org/1999/xlink" width="20" height="20" viewBox="0 0 20 20"><defs><path id="wknpa" d="M167.69 394.45c-.73-1.37-3.4-2.94-3.4-2.94-.61-.35-1.34-.39-1.69.23 0 0-.87 1.04-1.09 1.2-1.01.68-1.95.65-2.9-.3l-4.39-4.39c-.94-.94-.97-1.88-.28-2.89.15-.22 1.2-1.09 1.2-1.09.6-.35.57-1.08.22-1.68 0 0-1.57-2.68-2.94-3.4a1.5 1.5 0 0 0-1.77.26l-.97.97c-3.07 3.08-1.56 6.55 1.52 9.63l5.62 5.62c3.08 3.08 6.56 4.6 9.63 1.52l.97-.97a1.5 1.5 0 0 0 .27-1.77"/></defs><g><g clip-path="url(#clip-90507C9B-0772-4565-BDEC-90011C527EB8)" transform="translate(-148 -379)"><use fill="#fff" xlink:href="#wknpa"/></g></g></svg>