<svg xmlns="http://www.w3.org/2000/svg" xmlns:xlink="http://www.w3.org/1999/xlink" width="30" height="25" viewBox="0 0 30 25"><defs><path id="6fgva" d="M34 324.06h30v24.43H34z"/><path id="6fgvc" d="M34 331.53v13.28a3.67 3.67 0 0 0 3.66 3.68h22.68A3.67 3.67 0 0 0 64 344.8v-13.28a3.5 3.5 0 0 0-3.48-3.49h-4.88l-.11-.51a4.45 4.45 0 0 0-4.36-3.47h-4.34a4.46 4.46 0 0 0-4.36 3.47l-.12.51h-4.87a3.5 3.5 0 0 0-3.48 3.5zm8.95-1.99c.35 0 .65-.24.73-.58l.25-1.1a2.96 2.96 0 0 1 2.9-2.3h4.34c1.39 0 2.57.95 2.9 2.3l.24 1.1c.08.34.38.58.73.58h5.47c1.1 0 1.98.9 1.98 2v13.27c0 1.2-.96 2.17-2.16 2.17H37.66c-1.2 0-2.16-.97-2.16-2.17v-13.28c0-1.1.89-1.99 1.98-1.99z"/><path id="6fgvd" d="M40.13 332.88a.92.92 0 1 1-1.84 0 .92.92 0 0 1 1.84 0"/><path id="6fgve" d="M49 344.82a6.44 6.44 0 0 0 0-12.86 6.43 6.43 0 0 0 0 12.86m0-11.33a4.9 4.9 0 1 1-.02 9.81 4.9 4.9 0 0 1 .02-9.8"/><clipPath id="6fgvb"><use xlink:href="#6fgva"/></clipPath></defs><g><g transform="translate(-34 -324)"><g><g/><g clip-path="url(#6fgvb)"><use fill="#4552fb" xlink:href="#6fgvc"/></g></g><g><use fill="#4552fb" xlink:href="#6fgvd"/></g><g><use fill="#4552fb" xlink:href="#6fgve"/></g></g></g></svg>