<svg xmlns="http://www.w3.org/2000/svg" xmlns:xlink="http://www.w3.org/1999/xlink" width="18" height="18" viewBox="0 0 18 18"><defs><path id="ckaua" d="M338.05 35.11a5.62 5.62 0 1 1-2.92 10.42l-4.74 4.74a1.33 1.33 0 0 1-1.89 0 1.34 1.34 0 0 1 0-1.89l4.74-4.74a5.62 5.62 0 0 1 4.8-8.53zm-3.66 9.88a5.67 5.67 0 0 1-.6-.6l-4.64 4.64a.43.43 0 0 0 .6.6zm3.66.45a4.71 4.71 0 1 0-.01-9.43 4.71 4.71 0 0 0 0 9.43z"/></defs><g><g clip-path="url(#clip-6CE40EB7-57FC-4817-92DF-8934494F0F1C)" transform="translate(-327 -34)"><use fill="#604f4e" xlink:href="#ckaua"/><use fill="#fff" fill-opacity="0" stroke="#604f4e" stroke-miterlimit="50" stroke-width="1.1" xlink:href="#ckaua"/></g></g></svg>