<svg xmlns="http://www.w3.org/2000/svg" xmlns:xlink="http://www.w3.org/1999/xlink" width="16" height="16" viewBox="0 0 16 16"><defs><path id="hunaa" d="M41.26 35.43a2.7 2.7 0 0 0-1.98.86l-5.83-2.9a2.73 2.73 0 0 0 0-.82l5.82-2.87c.5.53 1.2.87 1.99.87A2.76 2.76 0 0 0 44 27.8 2.76 2.76 0 0 0 41.26 25a2.76 2.76 0 0 0-2.7 3.2l-5.83 2.86a2.7 2.7 0 0 0-1.99-.87A2.76 2.76 0 0 0 28 32.98a2.76 2.76 0 0 0 2.74 2.78c.78 0 1.48-.33 1.98-.87l5.83 2.9-.03.42A2.76 2.76 0 0 0 41.26 41 2.76 2.76 0 0 0 44 38.21a2.76 2.76 0 0 0-2.74-2.78"/></defs><g><g clip-path="url(#clip-D59AE5A5-D7EE-4F2D-915F-23AA12300840)" transform="translate(-28 -25)"><use fill="#5f4f4d" xlink:href="#hunaa"/></g></g></svg>