<svg xmlns="http://www.w3.org/2000/svg" xmlns:xlink="http://www.w3.org/1999/xlink" width="25" height="10" viewBox="0 0 25 10"><defs><path id="iurca" d="M205 383.99h6.62v9.78H205z"/><path id="iurcd" d="M207.94 393.77c-.77 0-1.4-.06-1.88-.19a3.38 3.38 0 0 1-1-.37c-.05-.04-.07-.15-.06-.32a3.58 3.58 0 0 1 .24-.99c.06-.14.12-.2.18-.19l.97.3a5.1 5.1 0 0 0 2.75-.1.87.87 0 0 0 .58-.86c0-.35-.13-.64-.38-.87-.25-.22-.7-.46-1.37-.71-.35-.14-.69-.3-1-.46-.32-.17-.6-.37-.84-.59a2.45 2.45 0 0 1-.78-1.9c0-.35.06-.68.2-1 .13-.3.33-.57.6-.8.29-.22.64-.4 1.07-.53.44-.13.95-.2 1.55-.2a14.7 14.7 0 0 1 1.61.1c.17.02.3.06.41.09l.3.09c.08.03.11.13.11.3a2.29 2.29 0 0 1-.25 1.03c-.09.15-.17.21-.25.19l-.8-.2c-.34-.06-.67-.1-1-.1-.65 0-1.1.1-1.35.28a.87.87 0 0 0-.37.74c0 .34.14.6.42.8.27.2.7.41 1.3.62.92.37 1.61.8 2.05 1.27.45.48.67 1.08.67 1.8 0 .55-.1 1-.31 1.35-.2.36-.48.64-.83.85-.35.2-.74.35-1.18.44-.45.08-.9.13-1.36.13"/><path id="iurce" d="M220.4 393.69c-.25 0-.4-.04-.48-.12-.07-.08-.11-.24-.11-.47v-6.05l-1.06 1.74-.55.9a6.03 6.03 0 0 1-.24.4l-.21.34c-.05.05-.13.08-.26.08h-.27c-.15 0-.25-.03-.3-.08a2.22 2.22 0 0 1-.2-.33l-1.77-3.01v6.12c0 .15-.02.26-.08.35-.05.09-.18.13-.4.13h-.72c-.17 0-.3-.03-.43-.08-.12-.05-.18-.22-.18-.5v-8.3c0-.23.04-.38.13-.46.09-.07.2-.11.37-.11h.87c.12 0 .23.02.31.05.1.04.18.12.27.26l2.3 3.66 2.3-3.63a.64.64 0 0 1 .25-.26c.1-.05.19-.08.28-.08h.95c.22 0 .35.05.38.14.04.1.06.24.06.45v8.36a.8.8 0 0 1-.07.38c-.05.08-.18.12-.4.12z"/><path id="iurcb" d="M223.21 383.99h6.62v9.78h-6.62z"/><path id="iurcg" d="M226.15 393.77c-.77 0-1.4-.06-1.88-.19a3.37 3.37 0 0 1-1-.37c-.05-.04-.07-.15-.06-.32a3.24 3.24 0 0 1 .24-.99c.06-.14.12-.2.18-.19l.97.3a5.08 5.08 0 0 0 2.75-.1.87.87 0 0 0 .58-.86c0-.35-.13-.64-.38-.87-.26-.22-.71-.46-1.37-.71-.35-.14-.69-.3-1-.46-.33-.17-.6-.37-.85-.59a2.45 2.45 0 0 1-.77-1.9c0-.35.06-.68.2-1 .13-.3.33-.57.6-.8.28-.22.64-.4 1.07-.53.43-.13.95-.2 1.55-.2a14.85 14.85 0 0 1 1.61.1c.17.02.3.06.4.09l.3.09c.08.03.12.13.12.3a2.26 2.26 0 0 1-.26 1.03c-.08.15-.16.21-.24.19l-.8-.2a5 5 0 0 0-1-.1c-.65 0-1.1.1-1.35.28a.87.87 0 0 0-.37.74c0 .34.14.6.41.8.28.2.71.41 1.3.62.93.37 1.62.8 2.06 1.27.45.48.67 1.08.67 1.8 0 .55-.1 1-.31 1.35-.2.36-.49.64-.83.85-.35.2-.74.35-1.19.44-.44.08-.89.13-1.35.13"/><clipPath id="iurcc"><use xlink:href="#iurca"/></clipPath><clipPath id="iurcf"><use xlink:href="#iurcb"/></clipPath></defs><g><g clip-path="url(#clip-D582EFEA-8BEC-4638-AF76-9D39E51B1742)" transform="translate(-205 -384)"><g><g/><g clip-path="url(#iurcc)"><use fill="#5f4f4d" xlink:href="#iurcd"/></g></g><g><use fill="#5f4f4d" xlink:href="#iurce"/></g><g><g/><g clip-path="url(#iurcf)"><use fill="#5f4f4d" xlink:href="#iurcg"/></g></g></g></g></svg>