<svg xmlns="http://www.w3.org/2000/svg" xmlns:xlink="http://www.w3.org/1999/xlink" width="23" height="19" viewBox="0 0 23 19"><defs><path id="od4la" d="M51.17 389.62c-.86.38-1.78.63-2.74.74a4.75 4.75 0 0 0 2.1-2.6c-.92.53-1.95.93-3.03 1.14a4.79 4.79 0 0 0-8.13 4.3 13.58 13.58 0 0 1-9.82-4.93 4.7 4.7 0 0 0 1.47 6.3 4.78 4.78 0 0 1-2.16-.6v.07a4.73 4.73 0 0 0 3.83 4.62 4.78 4.78 0 0 1-2.16.08 4.77 4.77 0 0 0 4.46 3.28 9.63 9.63 0 0 1-7.06 1.95 13.6 13.6 0 0 0 7.3 2.12c8.78 0 13.57-7.19 13.57-13.42l-.01-.6a9.61 9.61 0 0 0 2.38-2.45"/></defs><g><g transform="translate(-28 -387)"><use fill="#f0f1f1" xlink:href="#od4la"/></g></g></svg>