<?xml version="1.0" encoding="utf-8"?>
<!-- Generator: Adobe Illustrator 21.0.2, SVG Export Plug-In . SVG Version: 6.00 Build 0)  -->
<svg version="1.1" id="Layer_1" xmlns="http://www.w3.org/2000/svg" xmlns:xlink="http://www.w3.org/1999/xlink" x="0px" y="0px"
	 viewBox="0 0 20 20" style="enable-background:new 0 0 20 20;" xml:space="preserve">
<title>Fill 1</title>
<desc>Created with Sketch.</desc>
<path id="Fill-1" d="M12.4,10l7.1-7.1c0.7-0.7,0.7-1.7,0-2.4c-0.7-0.7-1.7-0.7-2.4,0L10,7.6L2.9,0.5c-0.7-0.7-1.7-0.7-2.4,0
	c-0.7,0.7-0.7,1.7,0,2.4L7.6,10l-7.1,7.1c-0.7,0.7-0.7,1.7,0,2.4c0.7,0.7,1.7,0.7,2.4,0l7.1-7.1l7.1,7.1c0.7,0.7,1.7,0.7,2.4,0
	c0.7-0.7,0.7-1.7,0-2.4L12.4,10z"/>
</svg>
