<?xml version="1.0" encoding="utf-8"?>
<!-- Generator: Adobe Illustrator 21.0.2, SVG Export Plug-In . SVG Version: 6.00 Build 0)  -->
<svg version="1.1" id="Layer_1" xmlns="http://www.w3.org/2000/svg" xmlns:xlink="http://www.w3.org/1999/xlink" x="0px" y="0px"
	 viewBox="0 0 34 21.5" style="enable-background:new 0 0 34 21.5;" xml:space="preserve">
<path id="xdgma" d="M30.8,6.1v3.1h3.1v3h-3.1v3.1h-3.1v-3h-3.1V9.2h3.1V6.1L30.8,6.1z"/>
<path id="xdgmb" d="M3.1,18.3C-1,14.1-1,7.2,3.3,3.1c3-3,7.5-3.8,11.5-2.2l1.5,0.9L18,2.9l-2.7,2.7l-1-0.7c-2.6-1.6-5.9-1.1-8,1
	c-2.7,2.8-2.7,7.1,0,9.9c2.6,2.7,7.2,2.7,9.6,0c0.8-0.7,1.3-1.7,1.5-2.7v-0.3h-6.2V9.3h9.8l0.2,0.9v2.4c-0.1,2.2-1,4.3-2.6,5.9
	C14.4,22.4,7.2,22.4,3.1,18.3"/>
</svg>
