<?xml version="1.0" encoding="utf-8"?>
<!-- Generator: Adobe Illustrator 21.0.2, SVG Export Plug-In . SVG Version: 6.00 Build 0)  -->
<svg version="1.1" id="Layer_1" xmlns="http://www.w3.org/2000/svg" xmlns:xlink="http://www.w3.org/1999/xlink" x="0px" y="0px"
	 viewBox="0 0 29 30" style="enable-background:new 0 0 29 30;" xml:space="preserve">
<style type="text/css">
	.st0{display:none;}
	.st1{display:inline;fill:#FFFFFF;fill-opacity:0;}
</style>
<g class="st0">
	<path id="_x37_u5pa_1_" class="st1" d="M14.5,29.4c-2.3,0-12-5.8-12.8-7.1c-0.9-1.3-0.9-12.4,0-14.2C2.5,6.4,11.7,1,14.5,1
		c2.7,0,11.9,5.5,12.8,7.1c0.9,1.6,0.9,12.6,0,14.2C26.5,23.8,16.8,29.4,14.5,29.4z"/>
</g>
<path d="M14.5,30.1c-2.6,0-12.5-6-13.5-7.4C-0.1,21,0.1,9.5,1,7.8c1-2,10.4-7.5,13.5-7.5c3.1,0,12.4,5.7,13.5,7.5
	c1,1.7,1.1,13,0,14.9C26.9,24.6,17,30.1,14.5,30.1z M14.5,1.8C12,1.8,3.1,6.9,2.3,8.4c-0.8,1.5-0.8,12.2,0,13.4
	c0.7,1.1,10.1,6.7,12.2,6.7c2,0,11.5-5.4,12.2-6.7c0.8-1.4,0.8-12.2,0-13.4C25.9,7.2,17,1.8,14.5,1.8z"/>
</svg>
