<?xml version="1.0" encoding="utf-8"?>
<!-- Generator: Adobe Illustrator 21.0.2, SVG Export Plug-In . SVG Version: 6.00 Build 0)  -->
<svg version="1.1" id="Layer_1" xmlns="http://www.w3.org/2000/svg" xmlns:xlink="http://www.w3.org/1999/xlink" x="0px" y="0px"
	 viewBox="0 0 19.1 20" style="enable-background:new 0 0 19.1 20;" xml:space="preserve">
<path id="jiz2a" d="M9.6,0C4,0.2-0.2,4.9,0,10.4c0.2,5.2,4.4,9.3,9.6,9.6c5.5-0.2,9.8-4.9,9.6-10.4C18.9,4.4,14.7,0.2,9.6,0
	 M9.6,18.7c-4.8-0.2-8.5-4.3-8.3-9.1c0.2-4.5,3.8-8,8.3-8.3c4.8,0.2,8.5,4.3,8.3,9.1C17.6,14.9,14,18.5,9.6,18.7"/>
<path id="jiz2b" d="M9.4,3.5c-3.6,0-6.6,2.9-6.7,6.5c0,3.6,3,6.5,6.7,6.5c3.6,0,6.6-2.9,6.7-6.5C16.1,6.4,13.1,3.5,9.4,3.5
	 M9.4,15.2c-2.9,0.1-5.3-2.3-5.3-5.2c0-2.8,2.4-5.2,5.3-5.2c2.9,0,5.3,2.3,5.3,5.2C14.7,12.8,12.3,15.2,9.4,15.2"/>
<path id="jiz2c" d="M9.6,6.7C7.7,6.6,6.1,8,6,9.8s1.3,3.4,3.2,3.5c0.1,0,0.2,0,0.4,0c1.8-0.1,3.3-1.7,3.2-3.5
	C12.6,8.1,11.3,6.8,9.6,6.7 M9.6,12c-1.1,0-2-0.9-2-2s0.9-2,2-2s2,0.9,2,2S10.7,12,9.6,12"/>
</svg>
