<?xml version="1.0" encoding="utf-8"?>
<!-- Generator: Adobe Illustrator 21.0.2, SVG Export Plug-In . SVG Version: 6.00 Build 0)  -->
<svg version="1.1" id="Layer_1" xmlns="http://www.w3.org/2000/svg" xmlns:xlink="http://www.w3.org/1999/xlink" x="0px" y="0px"
	 viewBox="0 0 25.7 23.9" style="enable-background:new 0 0 25.7 23.9;" xml:space="preserve">
<path id="vftua" d="M0,6.8h5.1v17H0V6.8z M20,6.2c2.5,0,5.7,1.2,5.7,8v9.7h-5.1v-9.3c0-1.9-0.6-3.8-2.8-3.8c-2.2,0-3.9,1.7-4.1,3.9
	v9.2H8.6V6.8h5.1v2.4C15.2,7.2,17.6,6.2,20,6.2L20,6.2z M2.6,5.1C1.2,5.1,0,4,0,2.6S1.2,0,2.6,0C4,0.1,5.1,1.3,5,2.7
	C4.9,4,3.9,5,2.6,5.1L2.6,5.1z"/>
</svg>
