<svg xmlns="http://www.w3.org/2000/svg" xmlns:xlink="http://www.w3.org/1999/xlink" width="100" height="132" viewBox="0 0 100 132"><defs><path id="85efb" d="M224.16 122.68a4.34 4.34 0 0 1 2.19 3.75v39.05c0 1.54-.84 2.98-2.2 3.75l-13.52 7.73-11.26 6.43-9.38-5.37a4.41 4.41 0 0 0-4.38 0l-9.39 5.37-11.25-6.43-13.53-7.73a4.34 4.34 0 0 1-2.19-3.75v-39.05c0-1.54.84-2.98 2.19-3.75l34.17-19.52a4.4 4.4 0 0 1 4.38 0z"/><path id="85efc" d="M175.76 187.35c-.42 0-.85-.12-1.22-.39l-22.57-15.93a6.48 6.48 0 0 1-3.15-5.06l-.87-1.96V148.2l.85-21.85c0-2.2 1.23-4.33 3.2-5.49l35.02-22.83c.98-.64 2.3-.36 2.94.63.64.99.36 2.31-.62 2.95l-33.99 22.93a2.2 2.2 0 0 0-1.1 1.9l-.86 21.84v14.82l-.33 1.92 1.18.46c0 .77-.76 1.5-.07 1.9l1.36.1 21.46 16a2.13 2.13 0 0 1-1.23 3.87"/><path id="85efd" d="M144.07 152.8l-.17-5.46 90.72-3.66.17 4.26z"/><path id="85efe" d="M144.08 173.6l-.17-5.46 90.72-3.66.17 4.26z"/><path id="85efa" d="M138 200.47h99.6V69H138z"/><path id="85efg" d="M143.63 148.31h90.8v-12.8h-90.8z"/><path id="85efh" d="M141.16 169.21h90.8v-12.8h-90.8z"/><path id="85efi" d="M229.79 113.04a15.44 15.44 0 0 1 7.81 13.4v39.04c0 5.53-2.97 10.63-7.81 13.4l-3.44 1.96-4.46 2.55-11.26 6.43-15.01 8.58a15.74 15.74 0 0 1-15.63 0l-15.02-8.58-11.25-6.43-4.47-2.55-3.43-1.96a15.44 15.44 0 0 1-7.82-13.4v-39.04c0-5.53 2.98-10.64 7.82-13.4l17.16-9.8a33.66 33.66 0 0 1-.35-5.43c0-13.35-16.83-16.17-21.15-19.93-1.75-1.54-1.04-8.88 8.55-8.88 17.63 0 20.35 22.73 20.77 29.77l9.19-5.25a15.74 15.74 0 0 1 15.63 0l9.18 5.25c.42-7.04 3.15-29.77 20.77-29.77 9.6 0 10.3 7.34 8.55 8.88-4.31 3.76-21.14 6.58-21.14 19.93 0 2.3-.13 4.08-.36 5.42zm-3.44 13.4c0-1.55-.84-2.98-2.19-3.75L190 103.16a4.4 4.4 0 0 0-4.38 0l-34.17 19.53a4.33 4.33 0 0 0-2.19 3.75v39.04c0 1.54.84 2.98 2.2 3.75l13.52 7.73 11.26 6.43 9.38-5.36a4.4 4.4 0 0 1 4.38 0l9.39 5.36 11.25-6.43 13.53-7.73a4.34 4.34 0 0 0 2.19-3.75z"/><clipPath id="85eff"><use xlink:href="#85efa"/></clipPath></defs><g><g transform="translate(-138 -69)"><g><use fill="#ffe200" xlink:href="#85efb"/></g><g><use fill="#e4c505" xlink:href="#85efc"/></g><g><use fill="#e4c505" xlink:href="#85efd"/></g><g><use fill="#e4c505" xlink:href="#85efe"/></g><g/><g clip-path="url(#85eff)"><use fill="#5f4f4e" xlink:href="#85efg"/></g><g clip-path="url(#85eff)"><use fill="#5f4f4e" xlink:href="#85efh"/></g><g clip-path="url(#85eff)"><use fill="#5f4f4e" xlink:href="#85efi"/></g></g></g></svg>