<?xml version="1.0" encoding="utf-8"?>
<!-- Generator: Adobe Illustrator 21.0.2, SVG Export Plug-In . SVG Version: 6.00 Build 0)  -->
<svg version="1.1" id="Layer_1" xmlns="http://www.w3.org/2000/svg" xmlns:xlink="http://www.w3.org/1999/xlink" x="0px" y="0px"
	 viewBox="0 0 52.7 22.9" style="enable-background:new 0 0 52.7 22.9;" xml:space="preserve">
<style type="text/css">
	.st0{display:none;}
	.st1{display:inline;}
	.st2{display:inline;fill:#4553FB;}
	.st3{display:none;fill:#4553FB;}
	.st4{fill:#FFFFFF;}
</style>
<title>Fill 4</title>
<desc>Created with Sketch.</desc>
<g id="Page-1_1_" class="st0">
	<g id="_x32_.6---CMA-CGM-Members" transform="translate(-278.000000, -585.000000)" class="st1">
		<g id="Page-1" transform="translate(279.000000, 586.000000)">
			<g id="Fill-4">
				<g class="st0">
					<path class="st2" d="M50.2,22.4H35.5c-1.1,0-2-0.9-2-2c-0.1-2.7,0.8-5.1,2.4-6.8c0.9-1,2.1-1.7,3.4-2.2C37.3,10.3,36,8,36,5.5
						c0-3.8,3.1-7,6.9-7s6.9,3.1,6.9,7c0,2.5-1.3,4.8-3.4,6c1.3,0.5,2.5,1.2,3.4,2.2l0,0c1.6,1.7,2.5,4.1,2.4,6.8
						C52.1,21.5,51.3,22.4,50.2,22.4z M42.8-0.5c-3.2,0-5.9,2.7-5.9,6c0,2.6,1.6,4.9,4,5.7l1.8,0.6l-1.8,0.4
						c-1.7,0.3-3.2,1.1-4.3,2.2c-1.5,1.5-2.2,3.6-2.1,6.1c0,0.6,0.4,1,1,1h14.7c0.5,0,1-0.4,1-1c0.1-2.5-0.7-4.6-2.1-6.1l0,0
						c-1.1-1.1-2.6-1.9-4.3-2.2l-1.8-0.4l1.8-0.6c2.4-0.8,4-3.1,4-5.7C48.7,2.2,46.1-0.5,42.8-0.5z M49.2,19.4H36.5l0.1-0.6
						c0.2-1.2,0.7-2.2,1.5-3c1.1-1.2,2.8-1.8,4.8-1.8s3.7,0.6,4.8,1.8c0.8,0.8,1.3,1.8,1.5,3L49.2,19.4z M37.7,18.4H48
						c-0.2-0.8-0.6-1.4-1.1-1.9c-0.9-1-2.4-1.5-4.1-1.5s-3.1,0.5-4.1,1.5C38.3,17,37.9,17.6,37.7,18.4z M42.8,9.4
						c-2.2,0-3.9-1.8-3.9-4c0-2.2,1.8-4,3.9-4s3.9,1.8,3.9,4C46.7,7.7,45,9.4,42.8,9.4z M42.8,2.5c-1.6,0-2.9,1.3-2.9,3
						c0,1.6,1.3,3,2.9,3s2.9-1.3,2.9-3C45.7,3.8,44.4,2.5,42.8,2.5z"/>
				</g>
				<g>
					<path class="st3" d="M15.3,22.4H0.5c-1.1,0-2-0.9-2-2c-0.1-2.7,0.8-5.1,2.4-6.8c0.9-1,2.1-1.7,3.5-2.2C2.3,10.3,1,8,1,5.5
						c0-3.8,3.1-7,6.9-7c3.8,0,6.9,3.1,6.9,7c0,2.5-1.3,4.8-3.4,6c1.3,0.5,2.5,1.2,3.5,2.2h0c1.7,1.7,2.5,4.1,2.4,6.8
						C17.3,21.5,16.4,22.4,15.3,22.4z M7.9-0.5C4.6-0.5,2,2.2,2,5.5c0,2.6,1.6,4.9,4.1,5.7l1.8,0.6L6,12.1c-1.7,0.3-3.2,1.1-4.3,2.2
						c-1.5,1.5-2.2,3.6-2.2,6.1c0,0.5,0.5,1,1,1h14.8c0.5,0,1-0.4,1-1c0.1-2.5-0.7-4.6-2.2-6.1h0c-1.1-1.1-2.6-1.9-4.3-2.2L8,11.8
						l1.8-0.6c2.4-0.8,4.1-3.1,4.1-5.7C13.9,2.2,11.2-0.5,7.9-0.5z M14.3,19.4H1.5l0.1-0.6c0.2-1.2,0.7-2.2,1.5-3
						C4.2,14.6,5.9,14,7.9,14c2,0,3.7,0.6,4.8,1.8c0.8,0.8,1.3,1.8,1.5,3L14.3,19.4z M2.7,18.4h10.4c-0.2-0.8-0.6-1.4-1.1-1.9
						c-0.9-1-2.4-1.5-4.1-1.5c-1.7,0-3.2,0.5-4.1,1.5C3.3,17,2.9,17.6,2.7,18.4z M7.9,9.4C5.7,9.4,4,7.7,4,5.5c0-2.2,1.8-4,3.9-4
						c2.2,0,3.9,1.8,3.9,4C11.9,7.7,10.1,9.4,7.9,9.4z M7.9,2.5C6.3,2.5,5,3.8,5,5.5c0,1.6,1.3,3,2.9,3c1.6,0,2.9-1.3,2.9-3
						C10.9,3.8,9.5,2.5,7.9,2.5z"/>
				</g>
			</g>
		</g>
	</g>
</g>
<g class="st0">
	<path class="st4" d="M22.8,14.2c-0.2,0-0.5-0.1-0.6-0.3L20,11.7c-0.4-0.4-0.4-1.1,0-1.5L22.1,8c0.2-0.2,0.4-0.3,0.6-0.3l0,0
		c0.2,0,0.5,0.1,0.6,0.3c0.3,0.4,0.3,1,0,1.3L22.8,10h7.5l-0.6-0.7c-0.3-0.4-0.3-1,0-1.3l0,0c0.2-0.2,0.4-0.3,0.6-0.3c0,0,0,0,0,0
		c0.2,0,0.5,0.1,0.6,0.3l2.1,2.2c0.4,0.4,0.4,1.1,0,1.5L30.9,14c-0.2,0.2-0.4,0.3-0.6,0.3c0,0,0,0,0,0c-0.2,0-0.5-0.1-0.6-0.3
		c-0.3-0.4-0.3-1,0-1.3l0.7-0.7h-7.5l0.6,0.7c0.3,0.4,0.3,1,0,1.3C23.2,14.2,23,14.2,22.8,14.2z M22.8,8.2c-0.1,0-0.2,0-0.3,0.1
		l-2.1,2.2c-0.2,0.2-0.2,0.6,0,0.8l2.1,2.3c0.1,0.2,0.4,0.2,0.5,0c0.2-0.2,0.2-0.5,0-0.7l-1.4-1.5h9.8L29.9,13
		c-0.2,0.2-0.2,0.5,0,0.6c0.1,0.1,0.2,0.1,0.3,0.1h0c0.1,0,0.2,0,0.3-0.1l2.1-2.2c0.2-0.2,0.2-0.6,0-0.8l-2.1-2.2
		c-0.1-0.1-0.2-0.1-0.3-0.1h0c-0.1,0-0.2,0-0.3,0.1v0c-0.2,0.2-0.2,0.5,0,0.6l1.4,1.5h-9.8L23.1,9c0.2-0.2,0.2-0.4,0-0.6
		C23,8.3,22.9,8.2,22.8,8.2L22.8,8.2z"/>
</g>
<g>
	<path d="M38.1,19.9c0.2-1.1,0.6-2,1.3-2.8c1-1.1,2.6-1.7,4.4-1.7c1.8,0,3.4,0.6,4.4,1.7c0.7,0.7,1.1,1.7,1.3,2.8H38.1z M40.4,6.5
		c0-1.9,1.5-3.5,3.4-3.5c1.9,0,3.4,1.6,3.4,3.5c0,1.9-1.5,3.5-3.4,3.5C41.9,9.9,40.4,8.4,40.4,6.5z M50.4,15c-1.2-1.2-2.7-2-4.5-2.4
		c2.5-0.9,4.4-3.3,4.4-6.1c0-3.6-2.9-6.5-6.4-6.5c-3.5,0-6.4,2.9-6.4,6.5c0,2.9,1.8,5.3,4.4,6.1C40,13,38.5,13.8,37.3,15
		c-1.5,1.6-2.3,3.8-2.3,6.4c0,0.8,0.7,1.5,1.5,1.5h14.7c0.8,0,1.5-0.7,1.5-1.5C52.7,18.8,51.9,16.6,50.4,15z"/>
	<path id="Fill-1_1_" d="M3.1,19.9c0.2-1.1,0.6-2,1.4-2.8c1-1.1,2.6-1.7,4.5-1.7s3.4,0.6,4.5,1.7c0.7,0.7,1.2,1.7,1.3,2.8H3.1z
		 M5.5,6.5C5.5,4.6,7,3,8.9,3c1.9,0,3.4,1.6,3.4,3.5c0,1.9-1.5,3.5-3.4,3.5C7,9.9,5.5,8.4,5.5,6.5z M15.5,15c-1.2-1.2-2.8-2-4.6-2.4
		c2.6-0.9,4.4-3.3,4.4-6.1c0-3.6-2.9-6.5-6.4-6.5S2.5,2.9,2.5,6.5c0,2.9,1.8,5.3,4.4,6.1C5.1,13,3.5,13.8,2.3,15
		c-1.6,1.6-2.4,3.8-2.3,6.4c0,0.8,0.7,1.5,1.5,1.5h14.8c0.8,0,1.5-0.7,1.5-1.5C17.9,18.8,17.1,16.6,15.5,15z"/>
	<path id="Fill-1_2_" d="M29.8,8.2c-0.3,0.3-0.3,0.7,0,1c0.4,0.5,1,1.1,1,1.1h-8.6l1.1-1.1c0.2-0.3,0.2-0.7,0-1l0,0
		c-0.3-0.3-0.7-0.3-0.9,0c-0.6,0.6-1.5,1.6-2.1,2.2c-0.3,0.3-0.3,0.8,0,1.1l2.1,2.3c0.2,0.3,0.6,0.3,0.9,0l0,0c0.3-0.3,0.3-0.7,0-1
		c-0.4-0.5-1-1.1-1-1.1h8.6l-1,1.1c-0.3,0.3-0.3,0.7,0,1l0,0c0.3,0.3,0.7,0.3,0.9,0l2.1-2.2c0.3-0.3,0.3-0.8,0-1.1l-2.1-2.2
		C30.4,7.9,30,7.9,29.8,8.2"/>
</g>
</svg>
