<?xml version="1.0" encoding="utf-8"?>
<!-- Generator: Adobe Illustrator 21.0.2, SVG Export Plug-In . SVG Version: 6.00 Build 0)  -->
<svg version="1.1" id="Layer_1" xmlns="http://www.w3.org/2000/svg" xmlns:xlink="http://www.w3.org/1999/xlink" x="0px" y="0px"
	 viewBox="0 0 23 27" style="enable-background:new 0 0 23 27;" xml:space="preserve">
<style type="text/css">
	.st0{display:none;}
	.st1{display:inline;}
	.st2{filter:url(#Adobe_OpacityMaskFilter);}
	.st3{fill:#FFFFFF;}
	.st4{mask:url(#mask-2);}
</style>
<title>notifications</title>
<desc>Created with Sketch.</desc>
<g id="Page-1_1_" class="st0">
	<g id="_x35_---Menu" transform="translate(-54.000000, -399.000000)" class="st1">
		<g id="Group" transform="translate(51.000000, 174.000000)">
			<g id="notifications" transform="translate(3.000000, 225.000000)">
				<g id="Page-1">
					<g>
						<g transform="translate(0.756820, 0.000000)">
							<g id="Clip-2">
							</g>
						</g>
					</g>
				</g>
			</g>
		</g>
	</g>
</g>
<defs>
	<filter id="Adobe_OpacityMaskFilter" filterUnits="userSpaceOnUse" x="0" y="0" width="23" height="27">
		<feColorMatrix  type="matrix" values="1 0 0 0 0  0 1 0 0 0  0 0 1 0 0  0 0 0 1 0"/>
	</filter>
</defs>
<mask maskUnits="userSpaceOnUse" x="0" y="0" width="23" height="27" id="mask-2">
	<g class="st2">
		<polygon id="path-1" class="st3" points="11.5,27 0,27 0,0 23,0 23,27 		"/>
	</g>
</mask>
<path id="Fill-1" class="st4" d="M12.7,17.3l-1.6,0.9l-1.6-0.9v-1.9l1.6-0.9l1.6,0.9V17.3z M10.6,21L9,21.9L7.4,21v-1.9L9,18.2
	l1.6,0.9V21z M5.2,17.3v-1.9l1.6-0.9l1.6,0.9v1.9l-1.6,0.9L5.2,17.3z M13.5,14.6l-2.1-1.2c-0.2-0.1-0.4-0.1-0.5,0L9,14.5l-1.9-1.1
	c-0.2-0.1-0.4-0.1-0.5,0l-2.1,1.2c-0.2,0.1-0.3,0.3-0.3,0.5v2.5c0,0.2,0.1,0.4,0.3,0.5l1.9,1.1v2.2c0,0.2,0.1,0.4,0.3,0.5L8.7,23
	C8.8,23,8.9,23,9,23c0.1,0,0.2,0,0.3-0.1l2.1-1.2c0.2-0.1,0.3-0.3,0.3-0.5v-2.2l1.9-1.1c0.2-0.1,0.3-0.3,0.3-0.5v-2.5
	C13.7,14.9,13.6,14.7,13.5,14.6L13.5,14.6z M16.3,4.3l2.1-2.5C18.8,1.3,19,1,19.4,1c0.1,0,0.3,0,0.4,0.1c0.4,0.1,0.8,0.4,1,0.8
	c0.2,0.4,0.2,0.9,0,1.3c-0.3,0.6-0.5,0.7-1.3,0.7C19.5,3.9,16.3,4.3,16.3,4.3L16.3,4.3z M16.9,8.6c-0.1,0.5-0.6,0.9-1.2,0.9
	c-0.5,0-1-0.3-1.2-0.7c-0.1-0.2-0.3-0.3-0.5-0.3c-0.2,0-0.4,0.1-0.5,0.3c-0.2,0.4-0.6,0.7-1.2,0.7c-0.5,0-1-0.3-1.2-0.7
	c-0.1-0.2-0.3-0.3-0.5-0.3c-0.2,0-0.4,0.1-0.5,0.3C10,9.2,9.5,9.5,9,9.5c-0.5,0-1-0.3-1.2-0.7C7.7,8.6,7.5,8.4,7.3,8.4
	c-0.2,0-0.4,0.1-0.5,0.3C6.6,9.2,6.2,9.5,5.6,9.5c-0.5,0-1-0.3-1.2-0.7C4.4,8.6,4.2,8.4,3.9,8.4h0c-0.2,0-0.4,0.1-0.5,0.3
	C3.3,9.2,2.8,9.5,2.3,9.5C1.6,9.5,1.1,9.1,1,8.6l2.2-3.4c0,0,0.3-0.4-0.1-0.7C3,4.5,3,4.3,3,4.2C3,4,3.1,3.9,3.3,3.8
	c0,0,7.5,0,7.5,0c0.3,0,0.5-0.2,0.5-0.5c0-0.3-0.2-0.5-0.5-0.5H3.4c0,0,0,0,0,0c0,0,0,0,0,0C3.1,2.7,3,2.5,3,2.3
	c0-0.2,0.2-0.4,0.4-0.4h11.2c0.2,0,0.4,0.2,0.4,0.4c0,0.2-0.1,0.4-0.3,0.4c-0.2,0-0.4,0.3-0.4,0.5c0,0.3,0.2,0.5,0.4,0.5
	C14.8,3.8,15,4,15,4.2c0,0.1,0,0.2,0,0.2c-0.1,0.1-0.2,0.3-0.4,0.3H5.2c-0.3,0-0.5,0.2-0.5,0.5c0,0.3,0.2,0.5,0.5,0.5h9.3
	c0.1,0,0.2,0,0.3,0L16.9,8.6z M16.3,24.9c0,0.6-0.5,1.1-1.1,1.1H2.7c-0.6,0-1.1-0.5-1.1-1.1V10.8c0-0.1,0-0.2,0.1-0.3
	c0.2,0.1,0.4,0.1,0.6,0.1c0.7,0,1.3-0.3,1.7-0.7c0.4,0.4,1,0.7,1.7,0.7c0.7,0,1.3-0.3,1.7-0.7c0.4,0.4,1,0.7,1.7,0.7
	c0.7,0,1.3-0.3,1.7-0.7c0.4,0.4,1,0.7,1.7,0.7c0.7,0,1.3-0.3,1.7-0.7c0.4,0.4,1,0.7,1.7,0.7c0.2,0,0.4,0,0.6-0.1
	c0,0.1,0.1,0.2,0.1,0.3V24.9z M22.7,8.6l-6-3.3c0,0,2.8-0.3,2.9-0.3c0.8-0.1,1.6-0.2,2.1-1.3c0.3-0.7,0.3-1.6-0.1-2.3
	c-0.3-0.6-0.9-1.1-1.6-1.3c-1.4-0.3-1.9,0.3-2.5,1l-1.9,2.2c0,0,0-0.1-0.1-0.1C15.9,3,16,2.7,16,2.3c0-0.8-0.7-1.5-1.4-1.5H3.4
	c-0.8,0-1.4,0.7-1.4,1.5c0,0.4,0.1,0.7,0.3,0.9C2.1,3.5,1.9,3.9,1.9,4.2C1.9,4.5,2,4.8,2.2,5L0.1,8.2C0,8.3,0,8.4,0,8.5
	C0,9.1,0.3,9.6,0.7,10c-0.1,0.3-0.2,0.5-0.2,0.8v14.1C0.6,26,1.5,27,2.7,27h12.6c1.2,0,2.1-1,2.1-2.1V10.8c0-0.3-0.1-0.6-0.2-0.8
	c0.4-0.4,0.7-0.9,0.7-1.5c0-0.1,0-0.2-0.1-0.3l-1.1-1.7l5.5,3c0.2,0.1,0.6,0,0.7-0.2C23.1,9,23,8.7,22.7,8.6L22.7,8.6z"/>
</svg>
