<?xml version="1.0" encoding="utf-8"?>
<!-- Generator: Adobe Illustrator 21.0.2, SVG Export Plug-In . SVG Version: 6.00 Build 0)  -->
<svg version="1.1" id="Layer_1" xmlns="http://www.w3.org/2000/svg" xmlns:xlink="http://www.w3.org/1999/xlink" x="0px" y="0px"
	 viewBox="0 0 14 15" style="enable-background:new 0 0 14 15;" xml:space="preserve">
<style type="text/css">
	.st0{display:none;}
	.st1{display:inline;}
</style>
<g class="st0">
	<g transform="translate(-219 -611)" class="st1">
		<g>
			<g>
				<defs>
					<rect id="SVGID_1_" x="219" y="613" width="14" height="13"/>
				</defs>
				<clipPath id="SVGID_2_">
					<use xlink:href="#SVGID_1_"  style="overflow:visible;"/>
				</clipPath>
			</g>
		</g>
	</g>
</g>
<path id="_x34_5ehc" d="M12.9,4.5c-0.7-1.1-1.7-1.9-2.9-2.5C9.9,2,9.8,2,9.8,2C9.7,2,9.4,2,9.4,2.5v0.8c0,0.4,0.3,0.6,0.3,0.7
	c1.5,0.9,2.4,2.5,2.4,4.3c-0.1,2.7-2.3,4.9-5,4.9c-2.8,0.1-5.2-2-5.3-4.8c0,0,0-0.1,0-0.1c0-1.8,0.9-3.3,2.5-4.3
	c0.2-0.1,0.3-0.3,0.3-0.6V2.5C4.7,2.1,4.4,2,4.2,2C4.1,2,4.1,2,4,2.1C2.8,2.6,1.8,3.5,1.1,4.5C0.4,5.6,0,6.9,0,8.2
	C0.1,12,3.2,15.1,7,15c0,0,0,0,0,0c3.9,0,7-3,7-6.8C14,6.9,13.6,5.6,12.9,4.5"/>
<path id="_x34_5ehd" d="M6.5,8h1C7.8,8,8,7.7,8,7.3V0.7C8,0.3,7.8,0,7.5,0h-1C6.2,0,6,0.3,6,0.7v6.6C6,7.7,6.2,8,6.5,8"/>
</svg>
