<?xml version="1.0" encoding="utf-8"?>
<!-- Generator: Adobe Illustrator 21.0.2, SVG Export Plug-In . SVG Version: 6.00 Build 0)  -->
<svg version="1.1" id="Layer_1" xmlns="http://www.w3.org/2000/svg" xmlns:xlink="http://www.w3.org/1999/xlink" x="0px" y="0px"
	 viewBox="0 0 35.4 31.4" style="enable-background:new 0 0 35.4 31.4;" xml:space="preserve">
<style type="text/css">
	.st0{filter:url(#Adobe_OpacityMaskFilter);}
	.st1{fill:#FFFFFF;}
	.st2{mask:url(#mask-2_2_);}
</style>
<title>Page 1</title>
<desc>Created with Sketch.</desc>
<g>
	<path id="Fill-1_1_" d="M2.6,21.2c-0.1,0.1-0.2,0.3-0.3,0.4l-1.8,8.3c-0.1,0.2,0,0.5,0.2,0.7c0.2,0.2,0.4,0.3,0.7,0.3l8.5-0.3
		c0.2,0,0.3-0.1,0.5-0.2L27,16.4c0.3-0.3,0.4-0.8,0.1-1.1c-0.3-0.3-0.8-0.4-1.1-0.1L9.5,29l-7.2,0.3l1.5-7.1L20.2,8.5
		c0.3-0.3,0.4-0.8,0.1-1.1C20,7,19.5,6.9,19.2,7.2L2.6,21.2z"/>
	<path d="M1.3,31.4c-0.4,0-0.8-0.2-1-0.5C0,30.6-0.1,30.2,0,29.8l1.8-8.3c0.1-0.3,0.2-0.5,0.4-0.7h0L18.9,6.8
		c0.5-0.5,1.4-0.4,1.8,0.2c0.5,0.6,0.4,1.4-0.2,1.8L4.3,22.5l-1.4,6.3l6.4-0.3l16.3-13.7c0.5-0.5,1.4-0.4,1.8,0.2
		c0.5,0.6,0.4,1.4-0.2,1.8L10.7,30.8c-0.2,0.2-0.5,0.3-0.8,0.3L1.3,31.4C1.3,31.4,1.3,31.4,1.3,31.4z M2.9,21.5c0,0-0.1,0.1-0.1,0.2
		L1,30c0,0.1,0,0.2,0.1,0.3c0.1,0.1,0.2,0.1,0.2,0.1l8.5-0.3c0.1,0,0.1,0,0.2-0.1L26.6,16c0.1-0.1,0.1-0.3,0-0.4
		c-0.1-0.1-0.3-0.1-0.4,0L9.7,29.5l-8,0.3l1.7-7.9L19.9,8.1C20,8,20,7.8,19.9,7.7c-0.1-0.1-0.3-0.1-0.4,0L2.9,21.5z"/>
</g>
<g>
	<path id="Fill-3_1_" d="M22.5,11.2L7.3,24c-0.3,0.3-0.4,0.8-0.1,1.1c0.3,0.3,0.8,0.4,1.1,0.1l15.3-12.8c0.3-0.3,0.4-0.8,0.1-1.1
		C23.4,11,22.9,10.9,22.5,11.2"/>
	<path d="M7.8,26c0,0-0.1,0-0.1,0c-0.3,0-0.7-0.2-0.9-0.5c-0.5-0.5-0.4-1.4,0.2-1.8l15.3-12.8c0.3-0.2,0.6-0.3,0.9-0.3
		c0.3,0,0.7,0.2,0.9,0.5c0.5,0.5,0.4,1.4-0.2,1.8L8.6,25.6C8.4,25.8,8.1,26,7.8,26z M23.1,11.5c-0.1,0-0.1,0-0.2,0.1L7.6,24.4
		c-0.1,0.1-0.1,0.3,0,0.4c0.1,0.1,0.1,0.1,0.2,0.1c0.1,0,0.2,0,0.2-0.1l15.3-12.8c0.1-0.1,0.1-0.3,0-0.4
		C23.2,11.6,23.2,11.5,23.1,11.5C23.1,11.5,23.1,11.5,23.1,11.5z"/>
</g>
<defs>
	<filter id="Adobe_OpacityMaskFilter" filterUnits="userSpaceOnUse" x="21" y="1.6" width="12.8" height="13.4">
		<feColorMatrix  type="matrix" values="1 0 0 0 0  0 1 0 0 0  0 0 1 0 0  0 0 0 1 0"/>
	</filter>
</defs>
<mask maskUnits="userSpaceOnUse" x="21" y="1.6" width="12.8" height="13.4" id="mask-2_2_">
	<g class="st0">
		<polygon id="path-1_2_" class="st1" points="26.8,0.8 34.6,10 28.9,14.8 21.1,5.6 		"/>
	</g>
</mask>
<g class="st2">
	<path id="Fill-5_1_" d="M31.2,10.8l-2.1,1.8l-5.7-6.8L25.5,4c0.6-0.5,1.6-0.4,2.2,0.2l3.7,4.4C31.9,9.3,31.8,10.3,31.2,10.8
		 M24.5,2.8l-2.7,2.3c-0.3,0.3-0.4,0.8-0.1,1.1l6.7,8c0.3,0.3,0.8,0.4,1.1,0.1l2.7-2.3c1.3-1.1,1.5-3.1,0.4-4.4l-3.7-4.4
		C27.8,1.9,25.8,1.7,24.5,2.8"/>
	<path d="M29,15c-0.4,0-0.7-0.2-1-0.5l-6.7-8c-0.5-0.5-0.4-1.4,0.2-1.8l2.7-2.3c0.7-0.6,1.7-0.9,2.7-0.8c1,0.1,1.8,0.6,2.5,1.3
		l3.7,4.4C33.6,8,33.9,9,33.8,10c-0.1,1-0.5,1.8-1.3,2.5l-2.7,2.3C29.6,14.9,29.3,15,29,15z M26.4,2.6c-0.6,0-1.2,0.2-1.7,0.6
		l-2.7,2.3c-0.1,0.1-0.1,0.3,0,0.4l6.7,8c0.1,0.1,0.3,0.1,0.4,0l2.7-2.3c0.5-0.4,0.9-1.1,0.9-1.8c0.1-0.7-0.2-1.4-0.6-1.9l-3.7-4.4
		C28,3,27.4,2.7,26.7,2.6C26.6,2.6,26.5,2.6,26.4,2.6z M29,13.3l-6.3-7.5l2.5-2.1c0.4-0.3,0.9-0.5,1.5-0.5c0.5,0.1,1,0.3,1.4,0.7
		l3.7,4.4c0.4,0.4,0.5,0.9,0.5,1.5c0,0.5-0.3,1-0.7,1.4L29,13.3z M24.1,5.9l5,6l1.7-1.4c0.2-0.2,0.3-0.4,0.4-0.7
		c0-0.3-0.1-0.6-0.2-0.8l-3.7-4.4c-0.2-0.2-0.4-0.3-0.7-0.4c-0.3,0-0.5,0.1-0.8,0.2L24.1,5.9z"/>
</g>
<path d="M28.8,15.5l-8.4-10l6.5-5.4l8.4,10L28.8,15.5z M21.8,5.7l7.1,8.4l4.9-4.1l-7.1-8.4L21.8,5.7z"/>
</svg>
