<?xml version="1.0" encoding="utf-8"?>
<!-- Generator: Adobe Illustrator 21.0.2, SVG Export Plug-In . SVG Version: 6.00 Build 0)  -->
<svg version="1.1" id="Layer_1" xmlns="http://www.w3.org/2000/svg" xmlns:xlink="http://www.w3.org/1999/xlink" x="0px" y="0px"
	 viewBox="0 0 20 20" style="enable-background:new 0 0 20 20;" xml:space="preserve">
<style type="text/css">
	.st0{display:none;}
	.st1{display:inline;}
	.st2{clip-path:url(#SVGID_3_);}
</style>
<g class="st0">
	<g class="st1">
		<defs>
			<polygon id="SVGID_1_" points="-147,-378 -146,-378 -147,-377 			"/>
		</defs>
		<defs>
			<polygon id="SVGID_2_" points="-149,-380 -150,-380 -149,-381 			"/>
		</defs>
		<clipPath id="SVGID_3_">
			<use xlink:href="#SVGID_1_"  style="overflow:visible;"/>
		</clipPath>
		<clipPath id="SVGID_4_" class="st2">
			<use xlink:href="#SVGID_2_"  style="overflow:visible;"/>
		</clipPath>
	</g>
</g>
<path id="wknpa" d="M19.7,15.5c-0.7-1.4-3.4-2.9-3.4-2.9c-0.6-0.4-1.3-0.4-1.7,0.2c0,0-0.9,1-1.1,1.2c-1,0.7-1.9,0.6-2.9-0.3
	L6.2,9.3c-0.9-0.9-1-1.9-0.3-2.9c0.1-0.2,1.2-1.1,1.2-1.1c0.6-0.4,0.6-1.1,0.2-1.7c0,0-1.6-2.7-2.9-3.4C3.8-0.1,3.1,0,2.7,0.5l-1,1
	C-1.4,4.5,0.1,8,3.2,11.1l5.6,5.6c3.1,3.1,6.6,4.6,9.6,1.5l1-1C19.9,16.8,20,16,19.7,15.5"/>
</svg>
