<?xml version="1.0" encoding="utf-8"?>
<!-- Generator: Adobe Illustrator 21.0.2, SVG Export Plug-In . SVG Version: 6.00 Build 0)  -->
<svg version="1.1" id="Layer_1" xmlns="http://www.w3.org/2000/svg" xmlns:xlink="http://www.w3.org/1999/xlink" x="0px" y="0px"
	 viewBox="0 0 30 24.4" style="enable-background:new 0 0 30 24.4;" xml:space="preserve">
<style type="text/css">
	.st0{display:none;}
	.st1{display:inline;}
</style>
<g class="st0">
	<g transform="translate(-34 -324)" class="st1">
		<g>
			<g>
				<defs>
					<rect id="SVGID_1_" x="34" y="324" width="30" height="24.4"/>
				</defs>
				<clipPath id="SVGID_2_">
					<use xlink:href="#SVGID_1_"  style="overflow:visible;"/>
				</clipPath>
			</g>
		</g>
	</g>
</g>
<path id="_x36_fgvd" d="M6.1,8.8c0,0.5-0.4,0.9-0.9,0.9c-0.5,0-0.9-0.4-0.9-0.9s0.4-0.9,0.9-0.9C5.7,7.9,6.1,8.3,6.1,8.8"/>
<path id="_x36_fgve" d="M15,20.8c3.6-0.2,6.3-3.2,6.1-6.8c-0.2-3.3-2.8-5.9-6.1-6.1c-3.6,0-6.4,2.9-6.4,6.4
	C8.6,17.9,11.5,20.8,15,20.8 M15,9.4c2.7,0,4.9,2.2,4.9,4.9s-2.2,4.9-4.9,4.9c-2.7,0-4.9-2.2-4.9-4.9C10.1,11.6,12.3,9.4,15,9.4"/>
<path id="_x36_fgvc" d="M0,7.5v13.3c0,2,1.6,3.7,3.7,3.7c0,0,0,0,0,0h22.7c2,0,3.7-1.7,3.7-3.7c0,0,0,0,0,0V7.5
	C30,5.5,28.4,4,26.5,4h-4.9l-0.1-0.5c-0.5-2-2.3-3.5-4.4-3.5h-4.3c-2.1,0-3.9,1.4-4.4,3.5L8.4,4H3.5C1.6,4,0,5.6,0,7.5z M9,5.5
	c0.3,0,0.7-0.2,0.7-0.6l0.2-1.1c0.3-1.4,1.5-2.3,2.9-2.3h4.3c1.4,0,2.6,1,2.9,2.3l0.2,1.1c0.1,0.3,0.4,0.6,0.7,0.6h5.5
	c1.1,0,2,0.9,2,2v13.3c0,1.2-1,2.2-2.2,2.2H3.7c-1.2,0-2.2-1-2.2-2.2V7.5c0-1.1,0.9-2,2-2H9z"/>
</svg>
