<?xml version="1.0" encoding="utf-8"?>
<!-- Generator: Adobe Illustrator 21.0.2, SVG Export Plug-In . SVG Version: 6.00 Build 0)  -->
<svg version="1.1" id="Layer_1" xmlns="http://www.w3.org/2000/svg" xmlns:xlink="http://www.w3.org/1999/xlink" x="0px" y="0px"
	 viewBox="0 0 38 38" style="enable-background:new 0 0 38 38;" xml:space="preserve">
<style type="text/css">
	.st0{display:none;}
	.st1{display:inline;}
	.st2{filter:url(#filter-2);}
	.st3{filter:url(#filter-4);}
</style>
<filter  filterUnits="objectBoundingBox" height="205.9%" id="filter-4" width="218.1%" x="-59.1%" y="-37.8%">
	<feOffset  dx="0" dy="2" in="SourceAlpha" result="shadowOffsetOuter1"></feOffset>
	<feGaussianBlur  in="shadowOffsetOuter1" result="shadowBlurOuter1" stdDeviation="2"></feGaussianBlur>
	<feColorMatrix  in="shadowBlurOuter1" type="matrix" values="0 0 0 0 0   0 0 0 0 0   0 0 0 0 0  0 0 0 0.5 0"></feColorMatrix>
</filter>
<filter  filterUnits="objectBoundingBox" height="144.4%" id="filter-2" width="144.4%" x="-22.2%" y="-16.7%">
	<feMorphology  in="SourceAlpha" operator="dilate" radius="1" result="shadowSpreadOuter1"></feMorphology>
	<feOffset  dx="0" dy="2" in="shadowSpreadOuter1" result="shadowOffsetOuter1"></feOffset>
	<feMorphology  in="SourceAlpha" operator="erode" radius="1" result="shadowInner"></feMorphology>
	<feOffset  dx="0" dy="2" in="shadowInner" result="shadowInner"></feOffset>
	<feComposite  in="shadowOffsetOuter1" in2="shadowInner" operator="out" result="shadowOffsetOuter1"></feComposite>
	<feGaussianBlur  in="shadowOffsetOuter1" result="shadowBlurOuter1" stdDeviation="2"></feGaussianBlur>
	<feColorMatrix  in="shadowBlurOuter1" type="matrix" values="0 0 0 0 0   0 0 0 0 0   0 0 0 0 0  0 0 0 0.5 0"></feColorMatrix>
</filter>
<title>BUTTON PIN</title>
<desc>Created with Sketch.</desc>
<g id="Page-1" class="st0">
	<g id="_x32_.5---CMA-CGM-fichiers" transform="translate(-164.000000, -1250.000000)" class="st1">
		<g id="CARD-2" transform="translate(17.000000, 1216.000000)">
			<g id="BUTTON-PIN" transform="translate(152.000000, 37.000000)">
				<g id="Oval">
					<g class="st2">
						<circle id="path-1_1_" cx="14" cy="16" r="18"/>
					</g>
				</g>
				<g id="play" transform="translate(13.000000, 11.000000)">
					<g id="Fill-1">
						<g class="st3">
							<path id="path-3_2_" d="M-2.5-0.6C-2.5-0.6-2.5-0.6-2.5-0.6C-2.6-0.5-2.6-0.5-2.5-0.6L-2.6,9.7c0,0,0,0,0,0.1
								c0,0,0.1,0,0.1,0l8.9-5.1c0,0,0,0,0-0.1c0,0,0-0.1,0-0.1L-2.5-0.6C-2.5-0.6-2.5-0.6-2.5-0.6 M-2.5,11.2
								c-0.3,0-0.5-0.1-0.7-0.2C-3.7,10.8-4,10.3-4,9.7V-0.5c0-0.5,0.3-1,0.8-1.3c0.5-0.3,1-0.3,1.5,0l8.9,5.1
								c0.5,0.3,0.8,0.8,0.8,1.3c0,0.5-0.3,1-0.7,1.3L-1.7,11C-2,11.2-2.2,11.2-2.5,11.2"/>
						</g>
					</g>
				</g>
			</g>
		</g>
	</g>
</g>
<path d="M19,38C8.5,38,0,29.5,0,19S8.5,0,19,0s19,8.5,19,19S29.5,38,19,38z M19,2C9.6,2,2,9.6,2,19s7.6,17,17,17s17-7.6,17-17
	S28.4,2,19,2z"/>
<path id="path-3_1_" d="M15.5,13.4C15.5,13.4,15.5,13.4,15.5,13.4C15.4,13.5,15.4,13.5,15.5,13.4l-0.1,10.3c0,0,0,0,0,0.1
	c0,0,0.1,0,0.1,0l8.9-5.1c0,0,0,0,0-0.1c0,0,0-0.1,0-0.1L15.5,13.4C15.5,13.4,15.5,13.4,15.5,13.4 M15.5,25.2
	c-0.3,0-0.5-0.1-0.7-0.2c-0.5-0.3-0.8-0.8-0.8-1.3V13.5c0-0.5,0.3-1,0.8-1.3c0.5-0.3,1-0.3,1.5,0l8.9,5.1c0.5,0.3,0.8,0.8,0.8,1.3
	c0,0.5-0.3,1-0.7,1.3L16.3,25C16,25.2,15.8,25.2,15.5,25.2"/>
</svg>
