<?xml version="1.0" encoding="utf-8"?>
<!-- Generator: Adobe Illustrator 21.0.2, SVG Export Plug-In . SVG Version: 6.00 Build 0)  -->
<svg version="1.1" id="Layer_1" xmlns="http://www.w3.org/2000/svg" xmlns:xlink="http://www.w3.org/1999/xlink" x="0px" y="0px"
	 viewBox="0 0 18.5 22.2" style="enable-background:new 0 0 18.5 22.2;" xml:space="preserve">
<title>profile</title>
<desc>Created with Sketch.</desc>
<path d="M18.5,22.2H0v-1.4c0-1.3,0.7-2.4,1.8-3l3.7-2C6,15.5,6.2,15,6.2,14.5V13c-0.2-0.2-1.1-1.5-1.5-3.1C4.4,9.7,4.2,9.3,4.2,8.8
	V7.2c0-0.4,0.1-0.7,0.4-1V3.8c0-0.2-0.1-1.5,0.8-2.5C6.2,0.5,7.5,0,9.2,0c1.8,0,3.1,0.5,3.9,1.3c0.3,0.4,0.6,0.9,0.7,1.4l0,0.1
	l-0.5,0.2L13.9,3l0,0.6c0,0.1,0,0.2,0,0.2l0,2.4c0.3,0.2,0.4,0.6,0.4,1v1.7c0,0.6-0.4,1.1-0.9,1.3c-0.3,0.9-0.7,1.7-1.2,2.5
	c-0.1,0.2-0.3,0.3-0.4,0.5v1.5c0,0.1,0,0.2,0,0.2c0,0.1,0,0.2,0.1,0.2c0,0.1,0.1,0.2,0.1,0.2c0.1,0.1,0.1,0.2,0.2,0.3l0.1,0.1
	c0.1,0.1,0.2,0.2,0.4,0.3l4,2c1.2,0.6,1.9,1.8,1.9,3.1V22.2z M1,21.2h16.5v-0.4c0-0.9-0.5-1.8-1.3-2.2l-4-2
	c-0.2-0.1-0.3-0.2-0.5-0.3h0l-0.3-0.3c-0.1-0.1-0.2-0.2-0.3-0.4c-0.1-0.1-0.1-0.2-0.2-0.4l0-0.1c0-0.1-0.1-0.2-0.1-0.3l0-0.1
	c0-0.1,0-0.2,0-0.4v-1.9l0.2-0.3c0.1-0.1,0.2-0.2,0.3-0.4c0.5-0.7,0.8-1.4,1.1-2.2l0.1-0.5l0.5-0.1c0.1,0,0.2-0.2,0.2-0.3V7.2
	c0-0.1,0-0.2-0.1-0.2l-0.3-0.3l0-3.6c-0.1-0.5-0.3-0.8-0.5-1.1c-0.6-0.7-1.6-1-3.1-1C7.8,1,6.7,1.3,6.1,2C5.5,2.8,5.6,3.7,5.6,3.7
	l0,0.1v2.8L5.3,6.9C5.2,7,5.2,7.1,5.2,7.2v1.7c0,0.1,0.1,0.2,0.2,0.3l0.3,0.2l0.1,0.4c0.3,1.5,1.2,2.6,1.3,2.7l0.2,0.2v1.9
	c0,0.9-0.5,1.7-1.3,2.1l-3.7,2C1.5,19.1,1,19.9,1,20.8V21.2z"/>
</svg>
