<?xml version="1.0" encoding="utf-8"?>
<!-- Generator: Adobe Illustrator 21.0.2, SVG Export Plug-In . SVG Version: 6.00 Build 0)  -->
<svg version="1.1" id="Layer_1" xmlns="http://www.w3.org/2000/svg" xmlns:xlink="http://www.w3.org/1999/xlink" x="0px" y="0px"
	 viewBox="0 0 16 16" style="enable-background:new 0 0 16 16;" xml:space="preserve">
<style type="text/css">
	.st0{display:none;}
	.st1{display:inline;}
	.st2{clip-path:url(#SVGID_3_);}
</style>
<g class="st0">
	<g class="st1">
		<defs>
			<polygon id="SVGID_1_" points="-27,-24 -26,-24 -27,-23 			"/>
		</defs>
		<defs>
			<polygon id="SVGID_2_" points="-29,-26 -30,-26 -29,-27 			"/>
		</defs>
		<clipPath id="SVGID_3_">
			<use xlink:href="#SVGID_1_"  style="overflow:visible;"/>
		</clipPath>
		<clipPath id="SVGID_4_" class="st2">
			<use xlink:href="#SVGID_2_"  style="overflow:visible;"/>
		</clipPath>
	</g>
</g>
<path id="hunaa" d="M13.3,10.4c-0.8,0-1.5,0.3-2,0.9L5.4,8.4c0-0.3,0-0.5,0-0.8l5.8-2.9c0.5,0.5,1.2,0.9,2,0.9
	c1.5,0,2.7-1.2,2.7-2.8C16,1.3,14.8,0,13.3,0c0,0,0,0,0,0c-1.5,0-2.7,1.3-2.7,2.8c0,0.1,0,0.3,0,0.4L4.7,6.1c-0.5-0.6-1.2-0.9-2-0.9
	C1.2,5.2,0,6.4,0,8c0,0,0,0,0,0c0,1.5,1.2,2.8,2.7,2.8c0,0,0,0,0,0c0.8,0,1.5-0.3,2-0.9l5.8,2.9l0,0.4c0,1.5,1.2,2.8,2.7,2.8
	c0,0,0,0,0,0c1.5,0,2.8-1.3,2.7-2.8c0,0,0,0,0,0C16,11.7,14.8,10.4,13.3,10.4C13.3,10.4,13.3,10.4,13.3,10.4"/>
</svg>
