<svg xmlns="http://www.w3.org/2000/svg" xmlns:xlink="http://www.w3.org/1999/xlink" width="200" height="49" viewBox="0 0 200 49"><defs><path id="lvoga" d="M232.86 240.78a24.5 24.5 0 0 0-21.12-6.76 24.56 24.56 0 0 0-18.13 13.51c-4.47 8.93-2.55 19.8 4.75 27.26l.12.15.07.06.23.24a24.32 24.32 0 0 0 16.88 6.73c6.25 0 12.49-2.35 17.2-7.03a4.7 4.7 0 0 0 0-6.7 4.79 4.79 0 0 0-6.73 0 14.96 14.96 0 0 1-17 2.8l23.73-23.57a4.7 4.7 0 0 0 0-6.69m-30.72 10.97a15.15 15.15 0 0 1 11.13-8.39c3.07-.5 6.19 0 8.92 1.34l-19.78 19.64c-2.02-4-2.22-8.7-.27-12.59"/><path id="lvogb" d="M161.84 233a24.26 24.26 0 0 0-24.32 24.15 24.26 24.26 0 0 0 24.32 24.15 24.26 24.26 0 0 0 24.31-24.15A24.26 24.26 0 0 0 161.84 233m0 38.84c-8.16 0-14.8-6.59-14.8-14.69s6.64-14.7 14.8-14.7c8.15 0 14.79 6.6 14.79 14.7s-6.64 14.7-14.8 14.7"/><path id="lvogc" d="M112.32 242.46c4.56 0 8.8 2.04 11.62 5.6a4.78 4.78 0 0 0 6.69.79 4.7 4.7 0 0 0 .79-6.65 24.25 24.25 0 0 0-19.1-9.2A24.26 24.26 0 0 0 88 257.15a24.26 24.26 0 0 0 24.32 24.15c7.49 0 14.45-3.35 19.1-9.2a4.7 4.7 0 0 0-.8-6.64 4.78 4.78 0 0 0-6.68.79 14.76 14.76 0 0 1-11.62 5.6c-8.16 0-14.8-6.6-14.8-14.7s6.64-14.7 14.8-14.7"/><path id="lvogd" d="M263.6 233.71a24.26 24.26 0 0 0-24.31 24.15 24.26 24.26 0 0 0 24.32 24.15 24.26 24.26 0 0 0 24.31-24.15 24.26 24.26 0 0 0-24.31-24.15m0 38.84c-8.16 0-14.8-6.59-14.8-14.69s6.64-14.7 14.8-14.7c8.15 0 14.79 6.6 14.79 14.7s-6.64 14.7-14.8 14.7"/></defs><g><g transform="translate(-88 -233)"><g><use fill="#5f4f4e" xlink:href="#lvoga"/></g><g><use fill="#5f4f4e" xlink:href="#lvogb"/></g><g><use fill="#5f4f4e" xlink:href="#lvogc"/></g><g><use fill="#5f4f4e" xlink:href="#lvogd"/></g></g></g></svg>